<?xml version="1.0" standalone="no"?>
<!DOCTYPE svg PUBLIC "-//W3C//DTD SVG 1.1//EN" "http://www.w3.org/Graphics/SVG/1.1/DTD/svg11.dtd" >
<svg>
<metadata>
Created by FontForge 20090622 at Thu Sep  5 12:29:52 2019
 By deploy user
Copyright (c) 2011 by Brenda Gallo (gbrenda1987@gmail.com), with Reserved Font Name "Happy Monkey".
</metadata>
<defs>
<font id="HappyMonkey-Regular" horiz-adv-x="668" >
  <font-face 
    font-family="Happy Monkey"
    font-weight="400"
    font-stretch="normal"
    units-per-em="1000"
    panose-1="2 0 5 0 0 0 0 2 0 4"
    ascent="800"
    descent="-200"
    x-height="500"
    cap-height="700"
    bbox="-189 -255 1315 950"
    underline-thickness="50"
    underline-position="-50"
    unicode-range="U+000D-U+E000"
  />
<missing-glyph horiz-adv-x="241" 
 />
    <glyph glyph-name=".notdef" horiz-adv-x="241" 
 />
    <glyph glyph-name="NULL" horiz-adv-x="0" 
 />
    <glyph glyph-name="NULL" horiz-adv-x="0" 
 />
    <glyph glyph-name="nonmarkingreturn" unicode="&#xd;" horiz-adv-x="333" 
 />
    <glyph glyph-name="space" unicode=" " horiz-adv-x="241" 
 />
    <glyph glyph-name="exclam" unicode="!" horiz-adv-x="251" 
d="M60 50v28q0 22 18.5 35t49.5 13q27 0 46 -12.5t19 -35.5v-28q0 -23 -20 -36.5t-46 -13.5q-31 0 -49 13.5t-18 36.5zM89 267v455q0 27 38 27q15 0 25.5 -7t10.5 -20v-455q0 -13 -11 -20.5t-26 -7.5q-37 0 -37 28z" />
    <glyph glyph-name="quotedbl" unicode="&#x22;" horiz-adv-x="419" 
d="M47 639q0 23 14.5 42t45.5 19q59 0 59 -81q0 -49 -20.5 -100.5t-38.5 -51.5q-13 0 -16 17.5t-5 46.5t-12 46q-3 6 -9.5 15t-9.5 14.5t-5.5 14t-2.5 18.5zM247 639q0 23 14.5 42t45.5 19q59 0 59 -81q0 -49 -20.5 -100.5t-38.5 -51.5q-13 0 -16 17.5t-5 46.5t-12 46
q-3 6 -9.5 15t-9.5 14.5t-5.5 14t-2.5 18.5z" />
    <glyph glyph-name="numbersign" unicode="#" horiz-adv-x="711" 
d="M35 216q0 15 7 25.5t20 10.5h102l52 156h-74q-27 0 -27 38q0 15 7 25.5t20 10.5h98l67 203q4 18 30 18q16 0 28.5 -9t12.5 -22q0 -8 -3 -17l-57 -173h162l67 203q4 18 30 18q16 0 28.5 -9t12.5 -22q0 -8 -3 -17l-57 -173h89q13 0 20.5 -11t7.5 -26q0 -37 -28 -37h-113
l-52 -156h85q13 0 20.5 -11t7.5 -26q0 -37 -28 -37h-109l-52 -159q-6 -19 -32 -19q-15 0 -25.5 10t-10.5 26q0 13 4 26l38 116h-162l-52 -159q-6 -19 -32 -19q-15 0 -25.5 10t-10.5 26q0 13 4 26l38 116h-78q-27 0 -27 38zM242 252h162l52 156h-162z" />
    <glyph glyph-name="dollar" unicode="$" horiz-adv-x="616" 
d="M39 167q0 15 11.5 31t26.5 16q5 0 7 -2q29 -30 84.5 -57.5t111.5 -36.5v211q-40 1 -67.5 4t-60 12t-52 25t-33 45.5t-13.5 69.5q0 78 65.5 123t160.5 51v67q0 27 38 27q15 0 25.5 -7t10.5 -20v-69q67 -7 122 -32.5t83 -65.5q1 -2 1 -5q0 -12 -16.5 -24.5t-29.5 -12.5
q-2 0 -12 5q-65 53 -148 62v-191q49 -1 82.5 -7t68 -22.5t52.5 -50.5t18 -86q0 -175 -221 -186v-70q0 -13 -11 -20.5t-26 -7.5q-37 0 -37 28v72q-149 17 -234 105q-7 7 -7 19zM127 480q0 -26 11.5 -43.5t34.5 -26t47 -12t60 -4.5v192q-64 -5 -108.5 -31t-44.5 -75zM354 115
q147 9 147 118q0 27 -11 45.5t-33 28t-45.5 13.5t-57.5 6v-211z" />
    <glyph glyph-name="percent" unicode="%" horiz-adv-x="940" 
d="M37 439q0 75 53.5 117.5t121.5 42.5q60 0 110.5 -45t50.5 -115q0 -65 -45 -111.5t-118 -46.5q-71 0 -122 46.5t-51 111.5zM111 438q0 -30 30.5 -56.5t67.5 -26.5q35 0 62.5 26.5t27.5 57.5q0 30 -26 58t-64 28q-44 0 -71 -28.5t-27 -58.5zM308 38q0 9 16 37l247 509
q5 9 20 9q19 0 32 -11.5t13 -26.5q0 -13 -8 -27l-254 -519q-5 -10 -23 -10q-15 0 -29 12t-14 27zM569 139q0 75 53.5 117.5t121.5 42.5q60 0 110.5 -45t50.5 -115q0 -65 -45 -111.5t-118 -46.5q-71 0 -122 46.5t-51 111.5zM643 138q0 -30 30.5 -56.5t67.5 -26.5
q35 0 62.5 26.5t27.5 57.5q0 30 -26 58t-64 28q-44 0 -71 -28.5t-27 -58.5z" />
    <glyph glyph-name="ampersand" unicode="&#x26;" horiz-adv-x="566" 
d="M44 198q0 66 34 108t94 77l-3 4q-66 76 -66 166q0 66 50 106.5t116 40.5q67 0 116.5 -42t49.5 -115q0 -67 -37.5 -109t-104.5 -78l126 -147l37 61q4 4 12 4q17 0 29.5 -16.5t12.5 -29.5q0 -8 -4 -13l-40 -60l78 -90q6 -7 6 -16q0 -12 -15 -26t-30 -14q-11 0 -17 7l-69 80
q-82 -89 -182 -89q-83 0 -138 45t-55 146zM118 193q0 -58 36 -85t89 -27q74 0 132 67l-149 173q-52 -28 -80 -57t-28 -71zM175 543q0 -49 45 -102l19 -23q30 15 47.5 25.5t37 26.5t28.5 34.5t9 41.5q0 38 -26.5 59.5t-63.5 21.5q-38 0 -67 -22.5t-29 -61.5z" />
    <glyph glyph-name="quotesingle" unicode="'" horiz-adv-x="219" 
d="M47 639q0 23 14.5 42t45.5 19q59 0 59 -81q0 -49 -20.5 -100.5t-38.5 -51.5q-13 0 -16 17.5t-5 46.5t-12 46q-3 6 -9.5 15t-9.5 14.5t-5.5 14t-2.5 18.5z" />
    <glyph glyph-name="parenleft" unicode="(" horiz-adv-x="420" 
d="M41 304q0 115 33 213.5t104.5 164t168.5 65.5q12 0 19.5 -1.5t14.5 -10t7 -23.5t-8 -26.5t-21 -11.5q-77 0 -134 -52.5t-84 -136t-27 -185.5q0 -76 16.5 -139.5t42.5 -104t59 -68.5t65 -40t62 -12q12 0 21 -12t9 -27q0 -34 -42 -34q-90 0 -161.5 64.5t-108 164.5
t-36.5 212z" />
    <glyph glyph-name="parenright" unicode=")" horiz-adv-x="420" 
d="M31 -103q0 15 9 27t21 12q30 0 62 12t65 40t59 68.5t42.5 104t16.5 139.5q0 102 -27 185.5t-84 136t-134 52.5q-13 0 -21 11.5t-8 26.5q0 22 11 28.5t30 6.5q97 0 168.5 -65.5t104.5 -164t33 -213.5q0 -112 -36.5 -212t-108 -164.5t-161.5 -64.5q-42 0 -42 34z" />
    <glyph glyph-name="asterisk" unicode="*" horiz-adv-x="436" 
d="M60 401q0 11 7 16l86 58l-85 58q-7 7 -7 17q0 15 13 29t28 14q6 0 18 -8l61 -41v78q0 13 11 20.5t26 7.5q37 0 37 -28v-78l61 41q7 7 17 7q15 0 29 -13t14 -28q0 -13 -8 -18l-85 -58l86 -58q7 -7 7 -17q0 -14 -14.5 -28.5t-29.5 -14.5q-9 0 -16 7l-61 41v-78
q0 -27 -38 -27q-15 0 -25.5 7t-10.5 20v78l-61 -41q-10 -7 -17 -7q-14 0 -28.5 14.5t-14.5 29.5z" />
    <glyph glyph-name="plus" unicode="+" horiz-adv-x="439" 
d="M45 266q0 15 7 25.5t20 10.5h111v110q0 13 11 20.5t26 7.5q37 0 37 -28v-110h110q13 0 20.5 -11t7.5 -26q0 -37 -28 -37h-110v-111q0 -27 -38 -27q-15 0 -25.5 7t-10.5 20v111h-111q-27 0 -27 38z" />
    <glyph glyph-name="comma" unicode="," horiz-adv-x="253" 
d="M58 68q0 26 19.5 42t50.5 16q65 0 65 -76q0 -43 -38 -97t-57 -54q-18 0 -18 12q0 5 8.5 33.5t8.5 41.5t-7 17q-32 22 -32 65z" />
    <glyph glyph-name="hyphen" unicode="-" horiz-adv-x="470" 
d="M60 266q0 15 7 25.5t20 10.5h295q13 0 20.5 -11t7.5 -26q0 -37 -28 -37h-295q-27 0 -27 38z" />
    <glyph glyph-name="period" unicode="." horiz-adv-x="253" 
d="M60 50v28q0 22 18.5 35t49.5 13q27 0 46 -12.5t19 -35.5v-28q0 -23 -20 -36.5t-46 -13.5q-31 0 -49 13.5t-18 36.5z" />
    <glyph glyph-name="slash" unicode="/" horiz-adv-x="746" 
d="M30 -85q0 17 16 37l606 747q8 9 20 9q16 0 30 -12t14 -24q0 -11 -11 -25l-613 -757q-9 -10 -23 -10q-15 0 -27 10t-12 25z" />
    <glyph glyph-name="zero" unicode="0" horiz-adv-x="587" 
d="M54 348q0 160 64.5 258.5t177.5 98.5q114 0 175.5 -101t61.5 -253q0 -167 -60 -261t-177 -95q-113 0 -177.5 96t-64.5 257zM128 347q0 -122 42 -200t126 -78q83 0 123 78t40 202q0 76 -15.5 137t-53.5 103t-94 42q-57 0 -96 -42t-55.5 -104t-16.5 -138z" />
    <glyph glyph-name="one" unicode="1" horiz-adv-x="457" 
d="M31 489q0 11 7 18l201 180q13 13 27 13q32 0 32 -54v-572h107q13 0 20.5 -11t7.5 -26q0 -37 -28 -37h-289q-27 0 -27 38q0 15 7 25.5t20 10.5h108v494l-133 -114q-7 -7 -17 -7q-15 0 -29 13t-14 29z" />
    <glyph glyph-name="two" unicode="2" horiz-adv-x="549" 
d="M47 27q0 51 27.5 99t68.5 82l89 71l89 67.5t68.5 70.5t27.5 80q0 58 -54.5 93.5t-109.5 35.5q-39 0 -79 -17.5t-40 -49.5q0 -14 -12 -23t-28 -9q-15 0 -25.5 8.5t-10.5 24.5q1 64 63.5 102t126.5 38q41 0 82 -13t77.5 -38t59.5 -66.5t23 -92.5q0 -53 -30.5 -100.5
t-77.5 -85.5t-95.5 -72.5t-93.5 -76t-63 -81.5h342q13 0 20.5 -11t7.5 -26q0 -37 -28 -37h-379q-46 0 -46 27z" />
    <glyph glyph-name="three" unicode="3" horiz-adv-x="541" 
d="M56 141q0 16 10.5 24.5t25.5 8.5q16 0 28 -9t12 -23q0 -32 40 -49.5t79 -17.5q82 0 124 39.5t42 97.5q0 39 -17.5 67t-45.5 42t-55.5 19.5t-56.5 5.5q-26 0 -39.5 12t-13.5 29q0 19 14.5 34t37.5 15q60 0 96.5 26t36.5 77q0 43 -39 65t-84 22q-39 0 -79 -17.5t-40 -49.5
q0 -14 -12 -23t-28 -9q-15 0 -25.5 8.5t-10.5 24.5q1 64 63.5 102t126.5 38q80 0 141 -45t61 -122q0 -45 -29.5 -86.5t-62.5 -52.5q55 -13 94.5 -62.5t39.5 -129.5q0 -98 -70.5 -149.5t-173.5 -51.5q-64 0 -126.5 38t-63.5 102z" />
    <glyph glyph-name="four" unicode="4" horiz-adv-x="537" 
d="M25 231q0 21 12 31l324 425q13 13 27 13q32 0 32 -54v-379h47q13 0 20.5 -11t7.5 -26q0 -37 -28 -37h-47v-165q0 -13 -11 -20.5t-26 -7.5q-37 0 -37 28v165h-294q-27 0 -27 38zM134 267h212v278z" />
    <glyph glyph-name="five" unicode="5" horiz-adv-x="558" 
d="M61 437v236q0 27 46 27h329q28 0 28 -37q0 -15 -7.5 -26t-20.5 -11h-301v-187q63 35 148 35q100 0 168.5 -73t68.5 -166q0 -92 -68.5 -163.5t-169.5 -71.5q-40 0 -86.5 14.5t-85 48t-38.5 77.5q0 16 10.5 24.5t25.5 8.5q16 0 28 -9t12 -23q0 -32 48.5 -49.5t90.5 -17.5
q68 0 117.5 49.5t49.5 111.5q0 63 -50.5 114t-117.5 51q-43 0 -77.5 -13.5t-55.5 -27t-32 -13.5q-26 0 -43 22.5t-17 68.5z" />
    <glyph glyph-name="six" unicode="6" horiz-adv-x="565" 
d="M55 327q0 196 62 286t191 90q74 0 126.5 -36.5t53.5 -103.5q0 -16 -10.5 -24.5t-25.5 -8.5q-16 0 -28 9t-12 23q0 34 -31.5 50.5t-77.5 16.5q-42 0 -74.5 -19t-51 -48.5t-30 -69.5t-15.5 -76.5t-4 -75.5q0 -14 -0.5 -36t-0.5 -30q74 157 217 157q73 0 125 -46t52 -122
q0 -102 -66 -185t-170 -83q-110 0 -170 91.5t-60 240.5zM167 169q0 -44 28.5 -72t82.5 -28q65 0 117 50.5t52 142.5q0 38 -25 66.5t-72 28.5q-73 0 -128 -61t-55 -127z" />
    <glyph glyph-name="seven" unicode="7" horiz-adv-x="496" 
d="M27 664q0 15 7 25.5t20 10.5h373q50 0 50 -25q0 -9 -7 -28l-227 -619q-10 -28 -37 -28q-15 0 -26 10.5t-11 25.5q0 8 3 15l211 575h-329q-27 0 -27 38z" />
    <glyph glyph-name="eight" unicode="8" horiz-adv-x="579" 
d="M50 202q0 107 134 192q-47 40 -69.5 74t-22.5 72q0 66 53 113.5t145 47.5t144.5 -47.5t52.5 -113.5q0 -70 -92 -146q134 -85 134 -192q0 -81 -66.5 -142t-174.5 -61q-106 0 -172 61t-66 142zM124 193q0 -50 51.5 -85t110.5 -35q64 0 116.5 35t52.5 85q0 51 -59.5 101
t-114.5 52q-45 -2 -101 -51t-56 -102zM166 550q0 -30 32 -65.5t88 -49.5q55 15 91 51t36 64q0 34 -38 55t-85 21q-52 0 -88 -20.5t-36 -55.5z" />
    <glyph glyph-name="nine" unicode="9" horiz-adv-x="566" 
d="M45 435q0 102 66 185t170 83q110 0 170 -91.5t60 -240.5q0 -196 -62 -286t-191 -90q-74 0 -126.5 36.5t-53.5 103.5q0 16 10.5 24.5t25.5 8.5q16 0 28 -9t12 -23q0 -34 31.5 -50.5t77.5 -16.5q42 0 74.5 19t51 48.5t30 69.5t15.5 76.5t4 75.5q0 14 0.5 36t0.5 30
q-74 -157 -217 -157q-73 0 -125 46t-52 122zM119 436q0 -38 25 -66.5t72 -28.5q73 0 128 61t55 127q0 44 -28.5 72t-82.5 28q-65 0 -117 -50.5t-52 -142.5z" />
    <glyph glyph-name="colon" unicode=":" horiz-adv-x="253" 
d="M60 50v28q0 22 18.5 35t49.5 13q27 0 46 -12.5t19 -35.5v-28q0 -23 -20 -36.5t-46 -13.5q-31 0 -49 13.5t-18 36.5zM60 350v28q0 22 18.5 35t49.5 13q27 0 46 -12.5t19 -35.5v-28q0 -23 -20 -36.5t-46 -13.5q-31 0 -49 13.5t-18 36.5z" />
    <glyph glyph-name="semicolon" unicode=";" horiz-adv-x="256" 
d="M60 68q0 26 19.5 42t50.5 16q65 0 65 -76q0 -43 -38 -97t-57 -54q-18 0 -18 12q0 5 8.5 33.5t8.5 41.5t-7 17q-32 22 -32 65zM62 350v28q0 22 18.5 35t49.5 13q27 0 46 -12.5t19 -35.5v-28q0 -23 -20 -36.5t-46 -13.5q-31 0 -49 13.5t-18 36.5z" />
    <glyph glyph-name="less" unicode="&#x3c;" horiz-adv-x="670" 
d="M42 303q0 11 10 25t25 21l478 137q6 2 10 2q15 0 26 -15t11 -30q0 -16 -15 -24l-425 -116l425 -115q15 -8 15 -24q0 -15 -11 -30t-26 -15q-4 0 -10 2l-478 135q-16 8 -25.5 22t-9.5 25z" />
    <glyph glyph-name="equal" unicode="=" horiz-adv-x="646" 
d="M68 266q0 15 7 25.5t20 10.5h455q13 0 20.5 -11t7.5 -26q0 -37 -28 -37h-455q-27 0 -27 38zM68 464q0 15 7 25.5t20 10.5h455q13 0 20.5 -11t7.5 -26q0 -37 -28 -37h-455q-27 0 -27 38z" />
    <glyph glyph-name="greater" unicode="&#x3e;" horiz-adv-x="670" 
d="M68 164q0 16 15 24l425 115l-425 116q-15 8 -15 24q0 15 11 30t26 15q4 0 10 -2l478 -137q15 -7 25 -21t10 -25t-9.5 -25t-25.5 -22l-478 -135q-6 -2 -10 -2q-15 0 -26 15t-11 30z" />
    <glyph glyph-name="question" unicode="?" horiz-adv-x="515" 
d="M36 560q1 64 63.5 102t126.5 38q41 0 82 -13t77.5 -38t59.5 -66.5t23 -92.5q0 -59 -23 -104.5t-58 -69t-67 -35.5t-59 -13v-58q0 -28 -37 -28q-15 0 -27.5 7.5t-12.5 20.5v120q34 2 68 11t67.5 27.5t54.5 52t21 76.5q0 58 -54.5 93.5t-109.5 35.5q-39 0 -79 -17.5
t-40 -49.5q0 -14 -12 -23t-28 -9q-15 0 -25.5 8.5t-10.5 24.5zM160 50v28q0 22 18.5 35t49.5 13q27 0 46 -12.5t19 -35.5v-28q0 -23 -20 -36.5t-46 -13.5q-31 0 -49 13.5t-18 36.5z" />
    <glyph glyph-name="at" unicode="@" horiz-adv-x="798" 
d="M51 240q0 81 35 151.5t90.5 117t122.5 73t133 26.5q145 0 232.5 -81.5t87.5 -216.5q0 -83 -55.5 -158.5t-136.5 -75.5q-33 0 -33 29v77q-73 -113 -195 -113q-55 0 -96 37t-41 106q0 96 76 170.5t174 74.5q78 0 115.5 -46.5t37.5 -127.5v-127q37 19 59 65.5t22 95.5
q0 90 -59.5 153.5t-169.5 63.5q-130 0 -228.5 -87.5t-98.5 -208.5q0 -119 60.5 -185t161.5 -66q43 0 81.5 12t52.5 28q7 8 20 8q10 0 23.5 -12t13.5 -23q0 -28 -60.5 -56t-130.5 -28q-130 0 -212 90t-82 234zM269 212q0 -69 74 -69q55 0 118.5 66t63.5 108q0 21 -10.5 35.5
t-27 20.5t-28.5 8.5t-23 2.5q-68 0 -117.5 -50t-49.5 -122z" />
    <glyph glyph-name="A" unicode="A" horiz-adv-x="639" 
d="M36 37q0 4 2 10l68 180h-41q-27 0 -27 38q0 15 7 25.5t20 10.5h69l139 364q8 16 22 25.5t25 9.5t25 -10t21 -25l139 -364h65q13 0 20.5 -11t7.5 -26q0 -37 -28 -37h-36l69 -180q2 -6 2 -10q0 -15 -15 -26t-30 -11q-16 0 -24 15l-81 212h-269l-81 -212q-8 -15 -24 -15
q-15 0 -30 11t-15 26zM214 301h212l-106 279z" />
    <glyph glyph-name="B" unicode="B" horiz-adv-x="643" 
d="M73 28v645q0 27 38 27q15 0 25.5 -7t10.5 -20v-53q72 81 182 81q74 0 127 -40t53 -111q0 -44 -23.5 -87.5t-73.5 -59.5q95 -15 145.5 -71t50.5 -120q0 -99 -64 -164t-200 -65q-117 0 -199 35q-9 -18 -35 -18q-37 0 -37 28zM147 91q64 -34 187 -34q102 0 151 41.5
t49 102.5q0 71 -61 106.5t-161 35.5q-31 0 -89 -1.5t-76 -1.5v-249zM147 421q40 -5 89 -5q94 0 146.5 38.5t52.5 90.5q0 43 -29 64t-77 21q-56 0 -105 -27t-77 -84v-98z" />
    <glyph glyph-name="C" unicode="C" horiz-adv-x="640" 
d="M45 355q0 153 110.5 254.5t260.5 101.5q90 0 167 -62q8 -7 8 -18q0 -16 -13 -29.5t-27 -13.5q-10 0 -17 7q-48 42 -120 42q-131 0 -212.5 -84.5t-81.5 -196.5q0 -115 80 -203t215 -88q88 0 143 63q11 11 19 11q15 0 29 -15t14 -29q0 -9 -7 -16q-77 -88 -193 -88
q-115 0 -202 52.5t-130 134t-43 177.5z" />
    <glyph glyph-name="D" unicode="D" horiz-adv-x="702" 
d="M73 28v645q0 27 38 27q15 0 25.5 -7t10.5 -20v-8q71 46 139 46q150 0 260.5 -101.5t110.5 -254.5q0 -96 -43 -177.5t-130 -134t-202 -52.5q-77 0 -135 37q0 -13 -11 -20.5t-26 -7.5q-37 0 -37 28zM147 124q55 -59 140 -59q135 0 215 88t80 203q0 112 -81.5 196.5
t-212.5 84.5q-71 0 -141 -49v-464z" />
    <glyph glyph-name="E" unicode="E" horiz-adv-x="672" 
d="M73 51v599q0 49 26 49h514q13 0 20.5 -11t7.5 -26q0 -37 -28 -37h-466v-196h376q13 0 20.5 -11t7.5 -26q0 -37 -28 -37h-376v-281h466q13 0 20.5 -11t7.5 -26q0 -37 -28 -37h-514q-17 0 -21.5 12t-4.5 39z" />
    <glyph glyph-name="F" unicode="F" horiz-adv-x="653" 
d="M73 28v622q0 49 26 49h514q13 0 20.5 -11t7.5 -26q0 -37 -28 -37h-466v-196h376q13 0 20.5 -11t7.5 -26q0 -37 -28 -37h-376v-327q0 -13 -11.5 -20.5t-26.5 -7.5q-36 0 -36 28z" />
    <glyph glyph-name="G" unicode="G" horiz-adv-x="672" 
d="M46 355q0 101 55 184t142 127.5t184 44.5q90 0 167 -62q8 -7 8 -18q0 -16 -13 -29.5t-27 -13.5q-10 0 -17 7q-48 42 -120 42q-132 0 -218 -85t-86 -196q0 -57 12.5 -106.5t40 -92t78 -67.5t118.5 -25q91 0 139.5 65t50.5 167h-201q-27 0 -27 38q0 15 7 25.5t20 10.5h245
q16 0 21 -11.5t5 -37.5q0 -149 -65.5 -240t-179.5 -91q-86 0 -153 30t-106.5 82t-59.5 115.5t-20 136.5z" />
    <glyph glyph-name="H" unicode="H" horiz-adv-x="718" 
d="M73 28v645q0 27 38 27q15 0 25.5 -7t10.5 -20v-244h424v244q0 27 38 27q15 0 25.5 -7t10.5 -20v-645q0 -13 -11 -20.5t-26 -7.5q-37 0 -37 28v327h-424v-327q0 -13 -11 -20.5t-26 -7.5q-37 0 -37 28z" />
    <glyph glyph-name="I" unicode="I" horiz-adv-x="220" 
d="M73 28v645q0 27 38 27q15 0 25.5 -7t10.5 -20v-645q0 -13 -11 -20.5t-26 -7.5q-37 0 -37 28z" />
    <glyph glyph-name="J" unicode="J" horiz-adv-x="503" 
d="M13 137q0 16 10.5 24.5t25.5 8.5q16 0 28 -9t12 -23q0 -32 40 -49.5t79 -17.5q55 0 104.5 44t49.5 125v433q0 27 38 27q15 0 25.5 -7t10.5 -20v-426q0 -116 -73 -183t-160 -67q-64 0 -126.5 38t-63.5 102z" />
    <glyph glyph-name="K" unicode="K" horiz-adv-x="627" 
d="M73 28v645q0 27 38 27q15 0 25.5 -7t10.5 -20v-331l360 349q9 9 20 9q15 0 28.5 -13.5t13.5 -28.5q0 -10 -7 -17l-261 -252l330 -338q4 -4 4 -14q0 -14 -15 -25.5t-31 -11.5q-10 0 -22 12l-321 324l-99 -96v-212q0 -13 -11 -20.5t-26 -7.5q-37 0 -37 28z" />
    <glyph glyph-name="L" unicode="L" horiz-adv-x="512" 
d="M73 28v645q0 27 38 27q15 0 25.5 -7t10.5 -20v-600h328q13 0 20.5 -11t7.5 -26q0 -36 -28 -36h-344q-58 0 -58 28z" />
    <glyph glyph-name="M" unicode="M" horiz-adv-x="774" 
d="M73 28v645q0 13 15.5 21.5t34.5 8.5q21 0 28 -12l236 -349l237 349q7 12 25 12t35 -9t17 -21v-645q0 -13 -11 -20.5t-26 -7.5q-37 0 -37 28v537l-182 -264q-24 -35 -59 -35q-32 0 -57 35l-182 264v-537q0 -13 -11 -20.5t-26 -7.5q-37 0 -37 28z" />
    <glyph glyph-name="N" unicode="N" horiz-adv-x="718" 
d="M73 28v645q0 27 30 27q22 0 43 -19l425 -374v366q0 27 38 27q15 0 25.5 -7t10.5 -20v-645q0 -13 -11 -20.5t-26 -7.5q-37 0 -37 28v182l-424 373v-555q0 -13 -11 -20.5t-26 -7.5q-37 0 -37 28z" />
    <glyph glyph-name="O" unicode="O" 
d="M48 348q0 153 85.5 255t203.5 102t199.5 -104.5t81.5 -249.5q0 -160 -79.5 -257.5t-201.5 -98.5q-118 0 -203.5 99t-85.5 254zM122 347q0 -114 63.5 -196t151.5 -82q87 0 147 82.5t60 197.5q0 110 -60.5 196t-146.5 86q-88 0 -151.5 -87t-63.5 -197z" />
    <glyph glyph-name="P" unicode="P" horiz-adv-x="633" 
d="M73 27v645q0 28 37 28q35 0 35 -43q103 44 199 44q136 0 200 -65t64 -164q0 -112 -87 -161t-253 -49q-20 0 -60.5 3t-60.5 3v-241q0 -13 -10.5 -20t-25.5 -7q-38 0 -38 27zM147 354q41 -13 165 -13q100 0 161 35.5t61 106.5q0 61 -49 102.5t-151 41.5q-88 0 -187 -53
v-220z" />
    <glyph glyph-name="Q" unicode="Q" horiz-adv-x="676" 
d="M47 348q0 153 85.5 255t203.5 102t199.5 -104.5t81.5 -249.5q0 -141 -63.5 -234.5t-164.5 -115.5q8 -42 30.5 -64.5t51.5 -22.5q25 0 41.5 3.5t32.5 22.5t16 54q0 14 11 23t27 9q15 0 25.5 -8.5t10.5 -24.5q-1 -78 -47 -115.5t-117 -37.5q-65 0 -103.5 41t-50.5 115
q-112 9 -191 106.5t-79 245.5zM121 347q0 -114 63.5 -196t151.5 -82q87 0 147 82.5t60 197.5q0 110 -60.5 196t-146.5 86q-88 0 -151.5 -87t-63.5 -197z" />
    <glyph glyph-name="R" unicode="R" horiz-adv-x="677" 
d="M73 27v645q0 28 37 28q35 0 35 -43q103 44 199 44q136 0 200 -65t64 -164q0 -140 -145 -186l167 -241q6 -11 6 -19q0 -12 -9.5 -19t-24.5 -7q-31 0 -49 25l-166 244q-50 -7 -119 -7q-20 0 -60.5 3t-60.5 3v-241q0 -13 -10.5 -20t-25.5 -7q-38 0 -38 27zM147 354
q41 -13 165 -13q100 0 161 35.5t61 106.5q0 61 -49 102.5t-151 41.5q-88 0 -187 -53v-220z" />
    <glyph glyph-name="S" unicode="S" horiz-adv-x="625" 
d="M43 127q0 15 11.5 31t26.5 16q5 0 7 -2q35 -37 105.5 -67.5t132.5 -30.5q179 0 179 119q0 40 -24.5 65.5t-64 38.5t-87 22t-95.5 21.5t-87.5 31.5t-64 58t-24.5 95q0 84 74 129.5t177 45.5q80 0 150.5 -26.5t103.5 -74.5q1 -2 1 -5q0 -12 -16.5 -24.5t-29.5 -12.5
q-2 0 -12 5q-79 65 -196 65q-71 0 -125 -26.5t-54 -80.5q0 -37 24.5 -61t64 -35.5t87.5 -20t96 -21.5t87.5 -33.5t64 -61.5t24.5 -100q0 -186 -246 -186q-80 0 -157 28.5t-126 78.5q-7 7 -7 19z" />
    <glyph glyph-name="T" unicode="T" horiz-adv-x="569" 
d="M10 664q0 15 7 25.5t20 10.5h494q13 0 20.5 -11t7.5 -26q0 -37 -28 -37h-216v-598q0 -13 -11 -20.5t-26 -7.5q-37 0 -37 28v598h-204q-27 0 -27 38z" />
    <glyph glyph-name="U" unicode="U" horiz-adv-x="700" 
d="M68 214v458q1 13 11.5 20.5t24.5 7.5q37 0 37 -28v-449q0 -47 39.5 -83t85 -51t80.5 -15q42 0 89 15t85.5 50.5t38.5 83.5v449q0 28 37 28q14 0 24.5 -7.5t11.5 -20.5v-458q0 -60 -44 -110.5t-107.5 -77t-126.5 -26.5q-103 0 -194.5 62t-91.5 152z" />
    <glyph glyph-name="V" unicode="V" horiz-adv-x="615" 
d="M23 663q0 15 15 26t30 11q16 0 24 -15l215 -565l216 565q8 15 24 15q15 0 30 -11t15 -26q0 -4 -2 -10l-237 -618q-7 -15 -21 -25t-25 -10t-25 9.5t-22 25.5l-235 618q-2 6 -2 10z" />
    <glyph glyph-name="W" unicode="W" horiz-adv-x="835" 
d="M33 663q0 15 15 26t30 11q20 0 24 -15l155 -565l119 526q5 21 15.5 35t23.5 14q23 0 34 -48l128 -527l156 565q5 15 24 15q15 0 30 -11t15 -26q0 -4 -2 -10l-177 -618q-7 -15 -21 -25t-25 -10t-25 9.5t-22 25.5l-116 426l-111 -426q-7 -15 -21 -25t-25 -10t-25 9.5
t-22 25.5l-175 618q-2 6 -2 10z" />
    <glyph glyph-name="X" unicode="X" horiz-adv-x="643" 
d="M25 38q0 7 6 13l242 297l-244 299q-4 3 -4 13q0 16 16 28t31 12q7 0 21 -12l228 -281l229 281q14 12 21 12q15 0 31 -12t16 -28q0 -10 -4 -13l-244 -299l242 -297q6 -6 6 -13q0 -13 -16 -25.5t-29 -12.5t-25 11l-227 277l-226 -277q-12 -11 -25 -11t-29 12.5t-16 25.5z
" />
    <glyph glyph-name="Y" unicode="Y" horiz-adv-x="658" 
d="M47 444v228q1 13 11.5 20.5t24.5 7.5q37 0 37 -28v-219q0 -47 39.5 -83t85 -51t80.5 -15q42 0 89 15t85.5 50.5t38.5 83.5v219q0 28 37 28q14 0 24.5 -7.5t11.5 -20.5v-228q0 -82 -76 -141.5t-170 -70.5v-204q0 -13 -11 -20.5t-26 -7.5q-37 0 -37 28v205
q-96 13 -170 71.5t-74 139.5z" />
    <glyph glyph-name="Z" unicode="Z" horiz-adv-x="641" 
d="M20 33q0 10 7 18l450 575h-409q-27 0 -27 38q0 15 7 25.5t20 10.5h481q54 0 54 -28q0 -11 -11 -25l-449 -572h446q13 0 20.5 -11t7.5 -26q0 -37 -28 -37h-515q-24 0 -39 9t-15 23z" />
    <glyph glyph-name="bracketleft" unicode="[" horiz-adv-x="301" 
d="M71 -142v865q0 16 9 21.5t33 5.5h128q13 0 20.5 -11t7.5 -26q0 -37 -28 -37h-96v-773h96q13 0 20.5 -11t7.5 -26q0 -37 -28 -37h-135q-12 0 -23.5 8.5t-11.5 20.5z" />
    <glyph glyph-name="backslash" unicode="\" horiz-adv-x="746" 
d="M30 672q0 12 14 24t30 12q12 0 20 -9l606 -747q16 -20 16 -37q0 -15 -12 -25t-27 -10q-14 0 -23 10l-613 757q-11 14 -11 25z" />
    <glyph glyph-name="bracketright" unicode="]" horiz-adv-x="301" 
d="M32 -134q0 15 7.5 26t20.5 11h96v773h-96q-28 0 -28 37q0 15 7.5 26t20.5 11h128q24 0 33 -5.5t9 -21.5v-865q0 -12 -11.5 -20.5t-23.5 -8.5h-135q-28 0 -28 37z" />
    <glyph glyph-name="asciicircum" unicode="^" horiz-adv-x="833" 
d="M118 416q0 6 4 11l165 238q25 35 47 35t46 -35l167 -238q4 -5 4 -11q0 -13 -17 -24.5t-30 -11.5t-24 15l-146 195l-145 -195q-11 -15 -24 -15q-14 0 -30.5 11.5t-16.5 24.5z" />
    <glyph glyph-name="underscore" unicode="_" horiz-adv-x="694" 
d="M67 -164q0 15 7 25.5t20 10.5h505q13 0 20.5 -11t7.5 -26q0 -37 -28 -37h-505q-27 0 -27 38z" />
    <glyph glyph-name="grave" unicode="`" horiz-adv-x="304" 
d="M40 691q0 20 18 39.5t40 19.5q43 0 78 -65t35 -111q0 -27 -17 -27q-11 0 -36.5 31.5t-45.5 40.5q-4 2 -16.5 7t-17.5 7.5t-14 9t-13 12t-7.5 15t-3.5 21.5z" />
    <glyph glyph-name="a" unicode="a" horiz-adv-x="652" 
d="M38 182q0 134 105 231t238 97q91 0 155 -69t64 -157l-1 -262q0 -13 -12.5 -20.5t-27.5 -7.5q-33 0 -33 28v169q-81 -105 -154.5 -152t-151.5 -47q-72 0 -127 58.5t-55 131.5zM110 180q0 -57 40 -86.5t85 -29.5q52 0 119 51.5t111.5 115t44.5 99.5q0 30 -17.5 53.5
t-43 34.5t-46.5 16.5t-35 5.5q-98 0 -178 -78.5t-80 -181.5z" />
    <glyph glyph-name="b" unicode="b" horiz-adv-x="660" 
d="M60 28v696q0 26 38 26q36 0 36 -26v-273q62 59 145 59q133 0 238 -97t105 -231q0 -73 -55 -131.5t-127 -58.5q-78 0 -151.5 47t-154.5 152v-163q0 -13 -11 -20.5t-26 -7.5q-37 0 -37 28zM150 330q0 -36 44.5 -99.5t111.5 -115t119 -51.5q45 0 85 29.5t40 86.5
q0 103 -80 181.5t-178 78.5q-14 0 -35 -5.5t-46.5 -16.5t-43 -34.5t-17.5 -53.5z" />
    <glyph glyph-name="c" unicode="c" horiz-adv-x="555" 
d="M38 248q0 86 46 148.5t111 90.5t136 28q90 0 167 -62q8 -7 8 -18q0 -16 -13 -29.5t-27 -13.5q-10 0 -17 7q-48 42 -120 42q-102 0 -159.5 -62t-57.5 -132q0 -71 66 -129.5t152 -58.5q88 0 143 63q11 11 19 11q15 0 29 -15t14 -29q0 -9 -7 -16q-77 -88 -193 -88
q-123 0 -210 77.5t-87 185.5z" />
    <glyph glyph-name="d" unicode="d" horiz-adv-x="660" 
d="M38 182q0 134 105 231t238 97q83 0 145 -59v273q0 26 36 26q38 0 38 -26v-696q0 -28 -37 -28q-15 0 -26 7.5t-11 20.5v163q-81 -105 -154.5 -152t-151.5 -47q-72 0 -127 58.5t-55 131.5zM110 180q0 -57 40 -86.5t85 -29.5q52 0 119 51.5t111.5 115t44.5 99.5
q0 30 -17.5 53.5t-43 34.5t-46.5 16.5t-35 5.5q-98 0 -178 -78.5t-80 -181.5z" />
    <glyph glyph-name="e" unicode="e" horiz-adv-x="596" 
d="M38 264q0 64 28 114t74 79t99 43.5t108 14.5q98 0 152 -42.5t54 -104.5q0 -67 -63 -114t-179 -47q-104 0 -198 30q11 -74 69 -124t143 -50q45 0 93.5 14t76.5 40q4 8 16 8q14 0 30 -12.5t16 -25.5q-25 -51 -97.5 -74.5t-140.5 -23.5q-123 0 -202 81t-79 194zM117 314
q75 -33 186 -33q87 0 132 27.5t45 61.5q0 30 -37.5 50.5t-111.5 20.5q-80 0 -133.5 -35.5t-80.5 -91.5z" />
    <glyph glyph-name="f" unicode="f" horiz-adv-x="368" 
d="M30 438q0 37 28 37h34v62q0 213 159 213q69 0 116 -42t48 -121q0 -16 -10.5 -24.5t-25.5 -8.5q-16 0 -27 9t-11 23q0 50 -27 70t-63 20q-85 0 -85 -112v-89h160q27 0 27 -38q0 -15 -7 -25.5t-20 -10.5h-160v-373q0 -27 -38 -27q-15 0 -25.5 7t-10.5 20v373h-34
q-13 0 -20.5 11t-7.5 26z" />
    <glyph glyph-name="g" unicode="g" horiz-adv-x="660" 
d="M38 182q0 134 105 231t238 97q83 0 145 -59v23q0 27 38 27q15 0 25.5 -7t10.5 -20v-479q0 -117 -76 -183.5t-177 -66.5q-80 0 -134 28t-55 93q0 16 10 24.5t25 8.5q16 0 27.5 -9t11.5 -23q0 -17 9.5 -27.5t30.5 -14.5t36.5 -5t43.5 -1q71 0 122.5 43t51.5 126v203
q-81 -105 -154.5 -152t-151.5 -47q-72 0 -127 58.5t-55 131.5zM110 180q0 -57 40 -86.5t85 -29.5q52 0 119 51.5t111.5 115t44.5 99.5q0 30 -17.5 53.5t-43 34.5t-46.5 16.5t-35 5.5q-98 0 -178 -78.5t-80 -181.5z" />
    <glyph glyph-name="h" unicode="h" horiz-adv-x="673" 
d="M60 26v698q0 13 10.5 20t25.5 7q38 0 38 -27v-332q49 52 120 82t145 30q95 0 158 -55.5t63 -148.5q0 -9 -0.5 -91.5t-0.5 -180.5q0 -13 -11 -20.5t-26 -7.5q-37 0 -37 28v263q0 49 -27.5 82.5t-60.5 45.5t-67 12q-74 0 -150.5 -46t-105.5 -118v-241q0 -27 -38 -27
q-15 0 -25.5 7t-10.5 20z" />
    <glyph glyph-name="i" unicode="i" horiz-adv-x="194" 
d="M60 28v445q0 27 38 27q15 0 25.5 -7t10.5 -20v-445q0 -13 -11 -20.5t-26 -7.5q-37 0 -37 28zM60 628v18q0 27 38 27q15 0 25.5 -7t10.5 -20v-18q0 -13 -11 -20.5t-26 -7.5q-37 0 -37 28z" />
    <glyph glyph-name="j" unicode="j" horiz-adv-x="194" 
d="M-189 -86q0 16 10.5 24.5t25.5 8.5q16 0 27 -9t11 -23q0 -50 27 -70t63 -20q85 0 85 112v536q0 27 38 27q15 0 25.5 -7t10.5 -20v-509q0 -213 -159 -213q-69 0 -116 42t-48 121zM57 631v18q0 27 38 27q15 0 25.5 -7t10.5 -20v-18q0 -13 -11 -20.5t-26 -7.5q-37 0 -37 28z
" />
    <glyph glyph-name="k" unicode="k" horiz-adv-x="609" 
d="M60 28v695q0 27 38 27q15 0 25.5 -7t10.5 -20v-427l343 197q11 7 21 7q15 0 24.5 -14.5t9.5 -30.5q0 -15 -8 -20l-225 -129l309 -255q4 -7 4 -14q0 -17 -20 -29q-13 -8 -26 -8q-14 0 -22 12l-314 254l-96 -55v-183q0 -13 -11 -20.5t-26 -7.5q-37 0 -37 28z" />
    <glyph glyph-name="l" unicode="l" horiz-adv-x="194" 
d="M60 28v695q0 27 38 27q15 0 25.5 -7t10.5 -20v-695q0 -13 -11 -20.5t-26 -7.5q-37 0 -37 28z" />
    <glyph glyph-name="m" unicode="m" horiz-adv-x="910" 
d="M59 28v443q0 27 38 27q15 0 25.5 -7t10.5 -20v-53q32 38 78 65t91 27q123 0 175 -89q31 43 79.5 66t98.5 23q93 0 147 -53t54 -147q0 -9 -0.5 -98.5t-0.5 -187.5q0 -13 -11 -20.5t-25 -7.5q-37 0 -37 28v277q0 135 -123 135q-18 0 -36.5 -3.5t-40 -13.5t-38.5 -24.5
t-28 -39.5t-11 -56q0 -39 -0.5 -99t-0.5 -176q0 -13 -11.5 -20.5t-26.5 -7.5q-35 0 -35 28v277q0 73 -35 104t-90 31q-53 0 -102.5 -40t-70.5 -93v-275q0 -13 -11 -20.5t-26 -7.5q-37 0 -37 28z" />
    <glyph glyph-name="n" unicode="n" horiz-adv-x="673" 
d="M60 26v447q0 13 10.5 20t25.5 7q38 0 38 -27v-79q50 54 121 85.5t144 31.5q94 0 157.5 -58.5t63.5 -152.5q0 -9 -0.5 -91.5t-0.5 -180.5q0 -13 -11 -20.5t-26 -7.5q-37 0 -37 28v263q0 71 -50.5 109t-104.5 38q-73 0 -149.5 -48.5t-106.5 -122.5v-241q0 -27 -38 -27
q-15 0 -25.5 7t-10.5 20z" />
    <glyph glyph-name="o" unicode="o" horiz-adv-x="636" 
d="M38 248q0 86 45.5 148.5t110 90.5t135.5 28q100 0 184.5 -75.5t84.5 -190.5q0 -109 -75 -186.5t-196 -77.5q-119 0 -204 77.5t-85 185.5zM112 247q0 -71 65 -129.5t151 -58.5q81 0 138.5 59t57.5 131q0 70 -55 131t-142 61q-102 0 -158.5 -62t-56.5 -132z" />
    <glyph glyph-name="p" unicode="p" horiz-adv-x="657" 
d="M60 -223v695q0 13 11 20.5t26 7.5q37 0 37 -28v-109q95 145 281 145q85 0 144.5 -56.5t59.5 -132.5q0 -89 -49 -163.5t-127.5 -115.5t-164.5 -41q-83 0 -144 55v-277q0 -27 -38 -27q-15 0 -25.5 7t-10.5 20zM133 197q0 -61 48.5 -92t96.5 -31q58 0 118 28t102.5 83.5
t42.5 121.5q0 68 -42.5 98t-102.5 30q-56 0 -118.5 -37.5t-103.5 -94t-41 -106.5z" />
    <glyph glyph-name="q" unicode="q" horiz-adv-x="657" 
d="M38 319q0 76 59.5 132.5t144.5 56.5q186 0 281 -145v109q0 28 37 28q15 0 26 -7.5t11 -20.5v-695q0 -13 -10.5 -20t-25.5 -7q-38 0 -38 27v277q-61 -55 -144 -55q-86 0 -164.5 41t-127.5 115.5t-49 163.5zM116 307q0 -66 42.5 -121.5t102.5 -83.5t118 -28q48 0 96.5 31
t48.5 92q0 50 -41 106.5t-103.5 94t-118.5 37.5q-60 0 -102.5 -30t-42.5 -98z" />
    <glyph glyph-name="r" unicode="r" horiz-adv-x="489" 
d="M59 28v443q0 27 38 27q15 0 25.5 -7t10.5 -20v-125q38 82 84.5 124t123.5 42q54 0 109 -14q29 -14 29 -38q0 -17 -7 -24t-23 -9q-51 12 -83 12q-74 0 -135 -73t-98 -190v-148q0 -13 -11 -20.5t-26 -7.5q-37 0 -37 28z" />
    <glyph glyph-name="s" unicode="s" horiz-adv-x="579" 
d="M39 95q0 13 11.5 28t26.5 19q7 0 7 -2q32 -35 92 -54.5t94.5 -22.5t64.5 -3q130 0 130 79q0 27 -19.5 43.5t-53 22.5t-67.5 8t-74 3.5t-61 5.5q-57 11 -101 46.5t-44 83.5q0 76 76.5 116.5t168.5 40.5q62 0 133 -21.5t106 -66.5q1 -2 1 -5q0 -13 -12 -30.5t-23 -17.5
q-10 0 -20 16q-48 51 -191 51q-59 0 -112 -20t-53 -59q0 -33 46 -49.5t98 -16.5q37 0 62 -1t61 -5.5t60 -15t47 -27t34.5 -44t11.5 -64.5q0 -51 -31.5 -85.5t-72 -48t-85.5 -13.5q-211 0 -304 90q-7 7 -7 19z" />
    <glyph glyph-name="t" unicode="t" horiz-adv-x="428" 
d="M27 463q0 15 7.5 26t20.5 11h34v123q0 13 10.5 20t25.5 7q38 0 38 -27v-123h160q13 0 20 -10.5t7 -25.5q0 -38 -27 -38h-160v-239q0 -112 85 -112q36 0 62.5 20t26.5 70q0 14 11.5 23t27.5 9q15 0 25 -8.5t10 -24.5q-1 -79 -47.5 -121t-115.5 -42q-159 0 -159 213v212
h-34q-28 0 -28 37z" />
    <glyph glyph-name="u" unicode="u" horiz-adv-x="670" 
d="M53 204q0 9 0.5 89.5t0.5 178.5q0 13 11 20.5t26 7.5q37 0 37 -28v-259q0 -71 50.5 -110.5t104.5 -39.5q68 0 145.5 49.5t107.5 123.5v237q0 27 38 27q15 0 25.5 -7t10.5 -20v-446q0 -13 -10.5 -20t-25.5 -7q-38 0 -38 27v82q-50 -55 -119.5 -87t-142.5 -32
q-94 0 -157.5 60t-63.5 154z" />
    <glyph glyph-name="v" unicode="v" horiz-adv-x="589" 
d="M20 463q0 15 15 26t30 11q16 0 24 -15l205 -365l206 365q8 15 24 15q15 0 30 -11t15 -26q0 -7 -2 -10l-232 -418q-17 -35 -41 -35q-23 0 -40 35l-232 418q-2 3 -2 10z" />
    <glyph glyph-name="w" unicode="w" horiz-adv-x="839" 
d="M21 464q0 14 16.5 25t30.5 11q16 0 24 -15l165 -365l135 330q2 4 6 15t6 15t5.5 10t8.5 8t11 2t11.5 -4t10 -11t7 -13l5.5 -13.5t3 -8.5l140 -330l146 365q8 15 24 15q15 0 30.5 -11.5t15.5 -24.5q0 -5 -3 -11l-172 -418q-6 -16 -18 -25.5t-23 -9.5q-23 0 -40 35
l-136 296l-132 -296q-7 -15 -18.5 -25t-22.5 -10q-24 0 -41 35l-192 418q-3 6 -3 11z" />
    <glyph glyph-name="x" unicode="x" horiz-adv-x="613" 
d="M24 35q0 7 6 13l222 199l-222 200q-4 3 -4 13q0 14 16 27t31 13q7 0 21 -12l212 -192l213 192q14 12 21 12q15 0 31 -12t16 -28q0 -10 -4 -13l-222 -200l222 -199q6 -6 6 -13q0 -13 -16 -25.5t-29 -12.5q-14 0 -25 11l-213 190l-212 -190q-12 -11 -25 -11t-29 12.5
t-16 25.5z" />
    <glyph glyph-name="y" unicode="y" 
d="M54 204v270q0 13 10.5 20.5t24.5 7.5q37 0 37 -28v-261q0 -37 20 -66t50.5 -44t60 -22.5t54.5 -7.5q71 0 134 44t89 117v240q0 27 38 27q15 0 25.5 -7t10.5 -20v-479q0 -59 -26.5 -108.5t-68.5 -79.5t-91 -46t-97 -16q-82 0 -160.5 38t-79.5 102q0 16 10.5 24.5t25.5 8.5
q16 0 28 -9t12 -23q0 -32 57 -49.5t112 -17.5q45 0 89.5 16.5t79.5 57t35 95.5v116q-91 -104 -232 -104q-98 0 -173 56.5t-75 147.5z" />
    <glyph glyph-name="z" unicode="z" horiz-adv-x="606" 
d="M20 34q0 7 4 14l421 378h-375q-28 0 -28 37q0 15 7.5 26t20.5 11h468q38 0 38 -31q0 -19 -16 -40l-404 -355h392q13 0 20 -10.5t7 -25.5q0 -38 -27 -38h-487q-13 0 -22 5q-19 12 -19 29z" />
    <glyph glyph-name="braceleft" unicode="{" horiz-adv-x="324" 
d="M49 -15q0 33 16.5 63t36 49.5t36 45.5t16.5 52q0 27 -9.5 35.5t-29.5 8.5q-66 0 -66 39q0 37 57 37q17 0 25 1.5t15.5 11.5t7.5 31q0 26 -16.5 52t-36 45.5t-36 49.5t-16.5 63q0 61 67 101.5t137 41.5q16 0 24.5 -10.5t8.5 -25.5q0 -16 -9 -28t-23 -12q-17 0 -37.5 -3.5
t-43 -11.5t-37.5 -23t-15 -35q0 -27 16.5 -53t36 -45t36 -49t16.5 -63q0 -49 -25 -76q25 -28 25 -76q0 -34 -16.5 -64t-36 -49t-36 -45t-16.5 -52q0 -20 15 -35t37.5 -23t43 -11.5t37.5 -3.5q14 0 23 -12t9 -28q0 -15 -8.5 -25.5t-24.5 -10.5q-70 1 -137 41.5t-67 101.5z
" />
    <glyph glyph-name="bar" unicode="|" horiz-adv-x="216" 
d="M71 -142v865q0 27 38 27q15 0 25.5 -7t10.5 -20v-865q0 -13 -11 -20.5t-26 -7.5q-37 0 -37 28z" />
    <glyph glyph-name="braceright" unicode="}" horiz-adv-x="325" 
d="M38 -122q0 16 9 28t23 12q17 0 37.5 3.5t43 11.5t37.5 23t15 35q0 26 -16.5 52t-36 45t-36 49t-16.5 64q0 48 25 76q-25 27 -25 76q0 33 16.5 63t36 49t36 45t16.5 53q0 20 -15 35t-37.5 23t-43 11.5t-37.5 3.5q-14 0 -23 12t-9 28q0 15 8.5 25.5t24.5 10.5
q70 -1 137 -41.5t67 -101.5q0 -33 -16.5 -63t-36 -49.5t-36 -45.5t-16.5 -52q0 -21 7.5 -31t15.5 -11.5t25 -1.5q57 0 57 -37q0 -39 -66 -39q-20 0 -29.5 -8.5t-9.5 -35.5q0 -26 16.5 -52t36 -45.5t36 -49.5t16.5 -63q0 -61 -67 -101.5t-137 -41.5q-16 0 -24.5 10.5
t-8.5 25.5z" />
    <glyph glyph-name="asciitilde" unicode="~" horiz-adv-x="717" 
d="M54 241q1 60 57.5 102t125.5 42q33 0 62 -11t44 -21.5t42 -32.5q51 -40 92 -40q43 0 78 22t35 51q0 14 12 23t28 9q15 0 25.5 -8.5t10.5 -24.5q-1 -60 -57.5 -102t-125.5 -42q-53 0 -96 24q-19 10 -45.5 32.5t-49.5 35.5t-49 13q-43 0 -78 -22t-35 -51q0 -14 -12 -23
t-28 -9q-15 0 -25.5 8.5t-10.5 24.5z" />
    <glyph glyph-name="exclamdown" unicode="&#xa1;" horiz-adv-x="247" 
d="M58 671v28q0 23 18 36.5t49 13.5q26 0 46 -13.5t20 -36.5v-28q0 -23 -19 -35.5t-46 -12.5q-31 0 -49.5 13t-18.5 35zM87 27v455q0 28 37 28q15 0 26 -7.5t11 -20.5v-455q0 -13 -10.5 -20t-25.5 -7q-38 0 -38 27z" />
    <glyph glyph-name="cent" unicode="&#xa2;" horiz-adv-x="566" 
d="M34 260q0 102 60.5 168t150.5 88v191q0 27 38 27q15 0 25.5 -7t10.5 -20v-180h8q90 0 167 -62q8 -7 8 -18q0 -16 -13 -29.5t-27 -13.5q-10 0 -17 7q-48 42 -120 42h-6v-382h7q88 0 143 63q11 11 19 11q15 0 29 -15t14 -29q0 -9 -7 -16q-77 -88 -193 -88h-12v-155
q0 -13 -11 -20.5t-26 -7.5q-37 0 -37 28v166q-93 25 -152 95t-59 157zM108 259q0 -52 38.5 -101t98.5 -72v354q-66 -22 -101.5 -74.5t-35.5 -106.5z" />
    <glyph glyph-name="sterling" unicode="&#xa3;" horiz-adv-x="507" 
d="M49 41q0 31 21 56t54 37v166h-34q-13 0 -20.5 11t-7.5 26q0 37 28 37h34v132q0 213 159 213q69 0 116 -42t48 -121q0 -16 -10.5 -24.5t-25.5 -8.5q-16 0 -27 9t-11 23q0 50 -27 70t-63 20q-85 0 -85 -112v-159h160q27 0 27 -38q0 -15 -7 -25.5t-20 -10.5h-160v-163
q27 -6 72 -41q37 -28 65 -28q29 0 49 15t20 36q0 10 8.5 16t19.5 6q25 0 25 -43q-1 -42 -36 -71t-82 -29q-37 0 -67 16q-13 7 -32 23t-35 25t-34 9q-29 0 -49 -15t-20 -36q0 -10 -8.5 -16t-19.5 -6q-25 0 -25 43z" />
    <glyph glyph-name="currency" unicode="&#xa4;" horiz-adv-x="670" 
d="M53 41q0 7 6 13l69 62q-46 62 -46 134q0 80 46 141l-69 62q-4 3 -4 13q0 14 16 27t31 13q7 0 21 -12l58 -53q72 49 157 49q76 0 144 -55l66 59q14 12 21 12q15 0 31 -12t16 -28q0 -10 -4 -13l-81 -72q41 -61 41 -131q0 -69 -36 -128l76 -68q6 -6 6 -13q0 -13 -16 -25.5
t-29 -12.5q-14 0 -25 11l-59 53q-65 -54 -155 -54q-87 0 -154 51l-57 -50q-12 -11 -25 -11t-29 12.5t-16 25.5zM155 247q0 -65 50.5 -113t130.5 -48q73 0 118 51.5t45 111.5q0 66 -44.5 117.5t-118.5 51.5q-62 0 -105 -29.5t-59.5 -66.5t-16.5 -75z" />
    <glyph glyph-name="yen" unicode="&#xa5;" horiz-adv-x="686" 
d="M61 514v158q1 13 11.5 20.5t24.5 7.5q37 0 37 -28v-149q0 -47 39.5 -83t85 -51t80.5 -15q42 0 89 15t85.5 50.5t38.5 83.5v149q0 28 37 28q14 0 24.5 -7.5t11.5 -20.5v-158q0 -82 -76 -141.5t-170 -70.5v-42h191q13 0 20.5 -11t7.5 -26q0 -37 -28 -37h-191v-34h191
q13 0 20.5 -11t7.5 -26q0 -37 -28 -37h-191v-50q0 -13 -11 -20.5t-26 -7.5q-37 0 -37 28v50h-190q-27 0 -27 38q0 15 7 25.5t20 10.5h190v34h-190q-27 0 -27 38q0 15 7 25.5t20 10.5h190v43q-96 13 -170 71.5t-74 139.5z" />
    <glyph glyph-name="brokenbar" unicode="&#xa6;" horiz-adv-x="218" 
d="M72 -142v295q0 27 38 27q15 0 25.5 -7t10.5 -20v-295q0 -13 -11 -20.5t-26 -7.5q-37 0 -37 28zM72 427v295q0 13 11 20.5t26 7.5q37 0 37 -28v-295q0 -27 -38 -27q-15 0 -25.5 7t-10.5 20z" />
    <glyph glyph-name="section" unicode="&#xa7;" horiz-adv-x="677" 
d="M36 425q0 121 70.5 195.5t196.5 74.5q91 0 172.5 -29.5t114.5 -79.5q2 -4 2 -7q0 -14 -14 -31t-26 -17q-5 0 -7 2q-75 77 -160 77q-54 0 -78.5 -34.5t-24.5 -89.5q0 -25 26.5 -50.5t66 -46.5t86 -53.5t86 -69t66 -94.5t26.5 -127q0 -97 -76 -169t-179 -72
q-96 0 -177.5 35t-117.5 97q0 15 11 31.5t27 16.5q5 0 7 -2q24 -32 64 -60.5t85 -28.5q44 0 70 45.5t26 90.5q0 36 -25.5 69.5t-63.5 58.5l-82.5 55.5l-82.5 59t-63.5 68.5t-25.5 85zM103 448q0 -43 26 -80.5t64.5 -63l84 -55t84 -57t64.5 -69.5t26 -91q0 -30 -14.5 -72.5
t-45.5 -78.5q79 0 127 56.5t48 116.5q0 46 -20 85.5t-51.5 67.5t-70 53.5l-77.5 50t-70.5 49.5t-51.5 58.5t-20 72.5q0 67 43 129q-62 0 -104 -53t-42 -119z" />
    <glyph glyph-name="dieresis" unicode="&#xa8;" horiz-adv-x="833" 
d="M144 620v28q0 22 18.5 35t49.5 13q27 0 46 -12.5t19 -35.5v-28q0 -23 -20 -36.5t-46 -13.5q-31 0 -49 13.5t-18 36.5zM394 620v28q0 22 18.5 35t49.5 13q27 0 46 -12.5t19 -35.5v-28q0 -23 -20 -36.5t-46 -13.5q-31 0 -49 13.5t-18 36.5z" />
    <glyph glyph-name="copyright" unicode="&#xa9;" horiz-adv-x="776" 
d="M52 420q0 63 21 117t55.5 92.5t80 66t95 41t98.5 13.5q75 0 148.5 -40.5t123.5 -118t50 -171.5q0 -131 -90.5 -228.5t-235.5 -97.5q-141 0 -243.5 98t-102.5 228zM125 416q0 -108 80 -178.5t195 -70.5q104 0 177.5 79t73.5 173q0 43 -17 87.5t-47.5 83.5t-79.5 63.5
t-107 24.5q-68 0 -123 -26t-87 -66t-48.5 -84t-16.5 -86zM198 413q0 92 66.5 153t156.5 61q54 0 100 -37q5 -5 5 -11q0 -12 -8.5 -34t-15.5 -22t-11 4q-28 26 -72 26q-73 0 -110 -45.5t-37 -93.5q0 -52 35 -88.5t113 -36.5q52 0 86 38q7 7 11 7q9 0 17.5 -23t8.5 -34
q0 -5 -4 -9q-47 -53 -116 -53q-105 0 -165 55.5t-60 142.5z" />
    <glyph glyph-name="ordfeminine" unicode="&#xaa;" horiz-adv-x="453" 
d="M45 414q0 80 63 138t143 58q56 0 99 -41.5t43 -93.5l-1 -157q0 -17 -35 -17q-39 0 -39 17v70q-24 -44 -63.5 -67t-83.5 -23q-53 0 -89.5 31t-36.5 85zM121 433q0 -27 13 -45t36 -18q46 0 87.5 48t41.5 84q0 17 -22.5 28t-39.5 11q-39 0 -77.5 -38.5t-38.5 -69.5z" />
    <glyph glyph-name="guillemotleft" unicode="&#xab;" horiz-adv-x="799" 
d="M29 311q0 25 33 47l318 247q6 2 10 2q15 0 26 -15t11 -30q0 -16 -15 -24l-285 -226l285 -235q15 -8 15 -24q0 -15 -11 -30t-26 -15q-4 0 -10 2l-318 255q-33 22 -33 46zM349 311q0 25 33 47l318 247q6 2 10 2q15 0 26 -15t11 -30q0 -16 -15 -24l-285 -226l285 -235
q15 -8 15 -24q0 -15 -11 -30t-26 -15q-4 0 -10 2l-318 255q-33 22 -33 46z" />
    <glyph glyph-name="logicalnot" unicode="&#xac;" horiz-adv-x="698" 
d="M68 336q0 15 7 25.5t20 10.5h505q10 0 20 -9t10 -20v-145q0 -13 -11 -20.5t-26 -7.5q-37 0 -37 28v100h-461q-27 0 -27 38z" />
    <glyph glyph-name="uni00AD" unicode="&#xad;" horiz-adv-x="470" 
d="M60 266q0 15 7 25.5t20 10.5h295q13 0 20.5 -11t7.5 -26q0 -37 -28 -37h-295q-27 0 -27 38z" />
    <glyph glyph-name="registered" unicode="&#xae;" horiz-adv-x="776" 
d="M52 423q0 63 21 117t55.5 92.5t80 66t95 41t98.5 13.5q75 0 148.5 -40.5t123.5 -118t50 -171.5q0 -131 -90.5 -228.5t-235.5 -97.5q-141 0 -243.5 98t-102.5 228zM125 419q0 -108 80 -178.5t195 -70.5q104 0 177.5 79t73.5 173q0 43 -17 87.5t-47.5 83.5t-79.5 63.5
t-107 24.5q-68 0 -123 -26t-87 -66t-48.5 -84t-16.5 -86zM236 273v314q0 5 15 10t31 5q26 0 27 -13q56 22 97 22q66 0 102 -36.5t36 -85.5q0 -63 -65 -92l79 -115q2 -2 2 -7q0 -15 -59 -15q-15 0 -24 13l-44 64.5t-28 40.5q-11 -1 -36 -1q-9 0 -29 1.5t-31 1.5v-107
q0 -6 -13 -9.5t-23 -3.5q-11 0 -24 3.5t-13 9.5zM309 463q21 -7 81 -7q40 0 60 9t20 33q0 36 -70 36q-41 0 -91 -24v-47z" />
    <glyph glyph-name="degree" unicode="&#xb0;" horiz-adv-x="422" 
d="M43 541q0 75 53.5 117.5t121.5 42.5q60 0 110.5 -45t50.5 -115q0 -65 -45 -111.5t-118 -46.5q-71 0 -122 46.5t-51 111.5zM117 540q0 -30 30.5 -56.5t67.5 -26.5q35 0 62.5 26.5t27.5 57.5q0 30 -26 58t-64 28q-44 0 -71 -28.5t-27 -58.5z" />
    <glyph glyph-name="plusminus" unicode="&#xb1;" horiz-adv-x="472" 
d="M61 36q0 15 7 25.5t20 10.5h295q13 0 20.5 -11t7.5 -26q0 -37 -28 -37h-295q-27 0 -27 38zM61 336q0 15 7 25.5t20 10.5h111v110q0 13 11 20.5t26 7.5q37 0 37 -28v-110h110q13 0 20.5 -11t7.5 -26q0 -37 -28 -37h-110v-111q0 -27 -38 -27q-15 0 -25.5 7t-10.5 20v111
h-111q-27 0 -27 38z" />
    <glyph glyph-name="uni00B2" unicode="&#xb2;" horiz-adv-x="406" 
d="M47 316q0 37 23 71.5t55.5 61.5l65 51.5t55.5 49.5t23 48q0 25 -17.5 38t-41.5 13q-23 0 -40 -11.5t-17 -32.5q0 -20 -25 -20q-18 0 -33.5 13.5t-15.5 37.5q0 38 39.5 61t78.5 23q145 0 145 -126q0 -39 -22.5 -70.5t-51 -50.5t-63.5 -46t-53 -53h180q7 0 11.5 -13.5
t4.5 -23.5q0 -12 -4.5 -24.5t-11.5 -12.5h-258q-27 0 -27 16z" />
    <glyph glyph-name="uni00B3" unicode="&#xb3;" horiz-adv-x="356" 
d="M54 385q0 17 12 28t25 11q19 0 19 -19q0 -17 14 -26t36 -9q37 0 58 19t21 44q0 24 -19.5 42t-54.5 18q-15 0 -23 13.5t-8 25.5q0 14 9 29.5t22 15.5q50 0 50 47q0 20 -15 31.5t-35 11.5t-33.5 -10.5t-13.5 -30.5q0 -18 -32 -18t-32 28q0 39 38.5 66.5t75.5 27.5
q46 0 83.5 -31.5t37.5 -78.5q0 -27 -15.5 -52t-34.5 -31q72 -31 72 -105q0 -52 -39 -91.5t-104 -39.5q-39 0 -76.5 22.5t-37.5 61.5z" />
    <glyph glyph-name="acute" unicode="&#xb4;" horiz-adv-x="248" 
d="M40 574q0 46 35 111t78 65q22 0 40 -19.5t18 -39.5q0 -12 -3.5 -21.5t-7.5 -15t-13 -12t-14 -9t-17.5 -7.5t-16.5 -7q-20 -9 -45.5 -40.5t-36.5 -31.5q-17 0 -17 27z" />
    <glyph glyph-name="uni00B5" unicode="&#xb5;" horiz-adv-x="552" 
d="M73 -112v585q0 27 38 27q15 0 25.5 -7t10.5 -20v-398q12 -2 39 -2q74 0 135 73t98 190v136q0 13 11 20.5t26 7.5q37 0 37 -28v-445q0 -27 -38 -27q-15 0 -25.5 7t-10.5 20v139q-38 -82 -84.5 -124t-123.5 -42q-41 0 -64 4v-116q0 -13 -11 -20.5t-26 -7.5q-37 0 -37 28z
" />
    <glyph glyph-name="paragraph" unicode="&#xb6;" 
d="M36 472q0 228 248 228h323q13 0 20.5 -11t7.5 -26q0 -37 -28 -37h-96v-758q0 -13 -11 -20.5t-26 -7.5q-37 0 -37 28v758h-116v-759q0 -27 -38 -27q-15 0 -25.5 7t-10.5 20v401q-97 0 -154 54t-57 150z" />
    <glyph glyph-name="periodcentered" unicode="&#xb7;" horiz-adv-x="253" 
d="M60 290v28q0 22 18.5 35t49.5 13q27 0 46 -12.5t19 -35.5v-28q0 -23 -20 -36.5t-46 -13.5q-31 0 -49 13.5t-18 36.5z" />
    <glyph glyph-name="cedilla" unicode="&#xb8;" horiz-adv-x="300" 
d="M38 -149q0 14 10.5 22t23.5 8q20 0 22 -15q3 -37 45 -37q19 0 33.5 9t14.5 25q0 19 -8.5 31.5t-25.5 18t-28 7t-30 2.5v67q3 11 38 11q36 0 36 -11v-25q28 0 59 -24.5t31 -72.5q0 -44 -33 -68t-73 -24q-59 0 -87 23.5t-28 52.5z" />
    <glyph glyph-name="uni00B9" unicode="&#xb9;" horiz-adv-x="341" 
d="M38 582q0 14 9 23l120 108q9 9 24 9q16 0 28.5 -9.5t12.5 -23.5v-314h50q7 0 12 -13t5 -24q0 -12 -5 -24.5t-12 -12.5h-174q-7 0 -11.5 13t-4.5 25q0 10 4.5 23t11.5 13h50v239l-80 -69q-6 -4 -9 -4q-11 0 -21 13t-10 28z" />
    <glyph glyph-name="ordmasculine" unicode="&#xba;" horiz-adv-x="422" 
d="M43 541q0 75 53.5 117.5t121.5 42.5q60 0 110.5 -45t50.5 -115q0 -65 -45 -111.5t-118 -46.5q-71 0 -122 46.5t-51 111.5zM117 540q0 -30 30.5 -56.5t67.5 -26.5q35 0 62.5 26.5t27.5 57.5q0 30 -26 58t-64 28q-44 0 -71 -28.5t-27 -58.5z" />
    <glyph glyph-name="guillemotright" unicode="&#xbb;" horiz-adv-x="799" 
d="M52 53q0 16 15 24l285 235l-285 226q-15 8 -15 24q0 15 11 30t26 15q4 0 10 -2l318 -247q33 -22 33 -47q0 -24 -33 -46l-318 -255q-6 -2 -10 -2q-15 0 -26 15t-11 30zM372 53q0 16 15 24l285 235l-285 226q-15 8 -15 24q0 15 11 30t26 15q4 0 10 -2l318 -247
q33 -22 33 -47q0 -24 -33 -46l-318 -255q-6 -2 -10 -2q-15 0 -26 15t-11 30z" />
    <glyph glyph-name="onequarter" unicode="&#xbc;" horiz-adv-x="935" 
d="M35 582q0 14 9 23l120 108q9 9 24 9q16 0 28.5 -9.5t12.5 -23.5v-314h50q7 0 12 -13t5 -24q0 -12 -5 -24.5t-12 -12.5h-174q-7 0 -11.5 13t-4.5 25q0 10 4.5 23t11.5 13h50v239l-80 -69q-6 -4 -9 -4q-11 0 -21 13t-10 28zM196 -5q0 17 16 37l546 747q8 9 20 9
q16 0 30 -12t14 -24q0 -4 -20 -33l-544 -749q-7 -10 -23 -10q-15 0 -27 10t-12 25zM566 123q0 16 7 24l205 255q9 12 29 12q18 0 32 -10t14 -26v-218h28q16 -3 16 -40q0 -34 -16 -34h-28v-79q0 -16 -31 -16q-16 0 -29.5 5t-13.5 11v79h-187q-13 0 -19.5 11t-6.5 26zM667 160
h112v122z" />
    <glyph glyph-name="onehalf" unicode="&#xbd;" horiz-adv-x="999" 
d="M35 582q0 14 9 23l120 108q9 9 24 9q16 0 28.5 -9.5t12.5 -23.5v-314h50q7 0 12 -13t5 -24q0 -12 -5 -24.5t-12 -12.5h-174q-7 0 -11.5 13t-4.5 25q0 10 4.5 23t11.5 13h50v239l-80 -69q-6 -4 -9 -4q-11 0 -21 13t-10 28zM196 -5q0 17 16 37l546 747q8 9 20 9
q16 0 30 -12t14 -24q0 -11 -11 -25l-553 -757q-9 -10 -23 -10q-15 0 -27 10t-12 25zM655 16q0 37 23 71.5t55.5 61.5l65 51.5t55.5 49.5t23 48q0 25 -17.5 38t-41.5 13q-23 0 -40 -11.5t-17 -32.5q0 -20 -25 -20q-18 0 -33.5 13.5t-15.5 37.5q0 38 39.5 61t78.5 23
q145 0 145 -126q0 -39 -22.5 -70.5t-51 -50.5t-63.5 -46t-53 -53h180q7 0 11.5 -13.5t4.5 -23.5q0 -12 -4.5 -24.5t-11.5 -12.5h-258q-27 0 -27 16z" />
    <glyph glyph-name="threequarters" unicode="&#xbe;" horiz-adv-x="950" 
d="M44 385q0 17 12 28t25 11q19 0 19 -19q0 -17 14 -26t36 -9q37 0 58 19t21 44q0 24 -19.5 42t-54.5 18q-15 0 -23 13.5t-8 25.5q0 14 9 29.5t22 15.5q50 0 50 47q0 20 -15 31.5t-35 11.5t-33.5 -10.5t-13.5 -30.5q0 -18 -32 -18t-32 28q0 39 38.5 66.5t75.5 27.5
q46 0 83.5 -31.5t37.5 -78.5q0 -27 -15.5 -52t-34.5 -31q72 -31 72 -105q0 -52 -39 -91.5t-104 -39.5q-39 0 -76.5 22.5t-37.5 61.5zM213 -5q0 17 16 37l546 747q7 9 20 9q16 0 30 -12t14 -24q0 -4 -20 -33l-544 -749q-7 -10 -23 -10q-15 0 -27 10t-12 25zM583 123
q0 16 7 24l205 255q9 12 29 12q18 0 32 -10t14 -26v-218h28q16 -3 16 -40q0 -34 -16 -34h-28v-79q0 -16 -31 -16q-16 0 -29.5 5t-13.5 11v79h-187q-13 0 -19.5 11t-6.5 26zM684 160h112v122z" />
    <glyph glyph-name="questiondown" unicode="&#xbf;" horiz-adv-x="515" 
d="M47 210q0 59 23 104.5t58 69t67 35.5t59 13v58q0 28 37 28q15 0 27.5 -7.5t12.5 -20.5v-120q-34 -2 -68 -11t-67.5 -27.5t-54.5 -52t-21 -76.5q0 -58 54.5 -93.5t109.5 -35.5q39 0 79 17.5t40 49.5q0 14 12 23t28 9q15 0 25.5 -8.5t10.5 -24.5q-1 -64 -63.5 -102
t-126.5 -38q-41 0 -82 13t-77.5 38t-59.5 66.5t-23 92.5zM222 622v28q0 23 20 36.5t46 13.5q31 0 49 -13.5t18 -36.5v-28q0 -22 -18.5 -35t-49.5 -13q-27 0 -46 12.5t-19 35.5z" />
    <glyph glyph-name="Agrave" unicode="&#xc0;" horiz-adv-x="639" 
d="M36 37q0 4 2 10l68 180h-41q-27 0 -27 38q0 15 7 25.5t20 10.5h69l139 364q8 16 22 25.5t25 9.5t25 -10t21 -25l139 -364h65q13 0 20.5 -11t7.5 -26q0 -37 -28 -37h-36l69 -180q2 -6 2 -10q0 -15 -15 -26t-30 -11q-16 0 -24 15l-81 212h-269l-81 -212q-8 -15 -24 -15
q-15 0 -30 11t-15 26zM177 891q0 20 18 39.5t40 19.5q43 0 78 -65t35 -111q0 -27 -17 -27q-11 0 -36.5 31.5t-45.5 40.5q-4 2 -16.5 7t-17.5 7.5t-14 9t-13 12t-7.5 15t-3.5 21.5zM214 301h212l-106 279z" />
    <glyph glyph-name="Aacute" unicode="&#xc1;" horiz-adv-x="639" 
d="M36 37q0 4 2 10l68 180h-41q-27 0 -27 38q0 15 7 25.5t20 10.5h69l139 364q8 16 22 25.5t25 9.5t25 -10t21 -25l139 -364h65q13 0 20.5 -11t7.5 -26q0 -37 -28 -37h-36l69 -180q2 -6 2 -10q0 -15 -15 -26t-30 -11q-16 0 -24 15l-81 212h-269l-81 -212q-8 -15 -24 -15
q-15 0 -30 11t-15 26zM214 301h212l-106 279zM282 774q0 46 35 111t78 65q22 0 40 -19.5t18 -39.5q0 -12 -3.5 -21.5t-7.5 -15t-13 -12t-14 -9t-17.5 -7.5t-16.5 -7q-20 -9 -45.5 -40.5t-36.5 -31.5q-17 0 -17 27z" />
    <glyph glyph-name="Acircumflex" unicode="&#xc2;" horiz-adv-x="639" 
d="M36 37q0 4 2 10l68 180h-41q-27 0 -27 38q0 15 7 25.5t20 10.5h69l139 364q8 16 22 25.5t25 9.5t25 -10t21 -25l139 -364h65q13 0 20.5 -11t7.5 -26q0 -37 -28 -37h-36l69 -180q2 -6 2 -10q0 -15 -15 -26t-30 -11q-16 0 -24 15l-81 212h-269l-81 -212q-8 -15 -24 -15
q-15 0 -30 11t-15 26zM154 786q0 6 4 11l115 118q3 3 8.5 9t8.5 8.5l7.5 6.5t7.5 6t7 3.5t8 1.5t8.5 -2t10 -6t8.5 -7.5l9 -10.5l10 -9l117 -118q4 -4 4 -11q0 -13 -14.5 -24t-27.5 -11q-15 0 -29 14l-96 85l-95 -85q-13 -13 -28 -13t-29 10.5t-14 23.5zM214 301h212
l-106 279z" />
    <glyph glyph-name="Atilde" unicode="&#xc3;" horiz-adv-x="639" 
d="M36 37q0 4 2 10l68 180h-41q-27 0 -27 38q0 15 7 25.5t20 10.5h69l139 364q8 16 22 25.5t25 9.5t25 -10t21 -25l139 -364h65q13 0 20.5 -11t7.5 -26q0 -37 -28 -37h-36l69 -180q2 -6 2 -10q0 -15 -15 -26t-30 -11q-16 0 -24 15l-81 212h-269l-81 -212q-8 -15 -24 -15
q-15 0 -30 11t-15 26zM116 798q0 42 35.5 71t82.5 29q23 0 43.5 -7.5t30.5 -14.5t29 -23q37 -28 65 -28q29 0 49 15t20 36q0 10 8.5 16t19.5 6q25 0 25 -43q-1 -42 -36 -71t-82 -29q-37 0 -67 16q-13 7 -32 23t-35 25t-34 9q-29 0 -49 -15t-20 -36q0 -10 -8.5 -16t-19.5 -6
q-25 0 -25 43zM214 301h212l-106 279z" />
    <glyph glyph-name="Adieresis" unicode="&#xc4;" horiz-adv-x="639" 
d="M36 37q0 4 2 10l68 180h-41q-27 0 -27 38q0 15 7 25.5t20 10.5h69l139 364q8 16 22 25.5t25 9.5t25 -10t21 -25l139 -364h65q13 0 20.5 -11t7.5 -26q0 -37 -28 -37h-36l69 -180q2 -6 2 -10q0 -15 -15 -26t-30 -11q-16 0 -24 15l-81 212h-269l-81 -212q-8 -15 -24 -15
q-15 0 -30 11t-15 26zM129 820v28q0 22 18.5 35t49.5 13q27 0 46 -12.5t19 -35.5v-28q0 -23 -20 -36.5t-46 -13.5q-31 0 -49 13.5t-18 36.5zM214 301h212l-106 279zM379 820v28q0 22 18.5 35t49.5 13q27 0 46 -12.5t19 -35.5v-28q0 -23 -20 -36.5t-46 -13.5q-31 0 -49 13.5
t-18 36.5z" />
    <glyph glyph-name="Aring" unicode="&#xc5;" horiz-adv-x="640" 
d="M37 37q0 4 2 10l68 180h-41q-27 0 -27 38q0 15 7 25.5t20 10.5h69l133 349q-28 13 -45.5 38t-17.5 54q0 48 35 76t78 28q40 0 72.5 -29.5t32.5 -74.5q0 -60 -52 -89l135 -352h65q13 0 20.5 -11t7.5 -26q0 -37 -28 -37h-36l69 -180q2 -6 2 -10q0 -15 -15 -26t-30 -11
q-16 0 -24 15l-81 212h-269l-81 -212q-8 -15 -24 -15q-15 0 -30 11t-15 26zM215 301h212l-106 279zM269 741q0 -14 15 -26.5t34 -12.5q15 0 27.5 13t12.5 27t-12 27.5t-28 13.5q-23 0 -36 -13.5t-13 -28.5z" />
    <glyph glyph-name="AE" unicode="&#xc6;" horiz-adv-x="735" 
d="M30 37q0 4 2 10l86 180h-59q-27 0 -27 38q0 15 7 25.5t20 10.5h94l174 364q12 21 23 29q5 5 15 5h314q13 0 20.5 -11t7.5 -26q0 -37 -28 -37h-266v-196h176q13 0 20.5 -11t7.5 -26q0 -37 -28 -37h-176v-281h266q13 0 20.5 -11t7.5 -26q0 -37 -28 -37h-314q-17 0 -21.5 12
t-4.5 39v176h-137l-103 -212q-8 -15 -24 -15q-15 0 -30 11t-15 26zM238 301h101v207z" />
    <glyph glyph-name="Ccedilla" unicode="&#xc7;" horiz-adv-x="640" 
d="M45 355q0 153 110.5 254.5t260.5 101.5q90 0 167 -62q8 -7 8 -18q0 -16 -13 -29.5t-27 -13.5q-10 0 -17 7q-48 42 -120 42q-131 0 -212.5 -84.5t-81.5 -196.5q0 -115 80 -203t215 -88q88 0 143 63q11 11 19 11q15 0 29 -15t14 -29q0 -9 -7 -16q-77 -88 -193 -88
q-32 0 -67 5v-32q28 0 59 -24.5t31 -72.5q0 -44 -33 -68t-73 -24q-59 0 -87 23.5t-28 52.5q0 14 10.5 22t23.5 8q20 0 22 -15q3 -37 45 -37q19 0 33.5 9t14.5 25q0 19 -8.5 31.5t-25.5 18t-28 7t-30 2.5v92q-110 39 -172 133t-62 208z" />
    <glyph glyph-name="Egrave" unicode="&#xc8;" horiz-adv-x="672" 
d="M73 51v599q0 49 26 49h514q13 0 20.5 -11t7.5 -26q0 -37 -28 -37h-466v-196h376q13 0 20.5 -11t7.5 -26q0 -37 -28 -37h-376v-281h466q13 0 20.5 -11t7.5 -26q0 -37 -28 -37h-514q-17 0 -21.5 12t-4.5 39zM203 891q0 20 18 39.5t40 19.5q43 0 78 -65t35 -111
q0 -27 -17 -27q-11 0 -36.5 31.5t-45.5 40.5q-4 2 -16.5 7t-17.5 7.5t-14 9t-13 12t-7.5 15t-3.5 21.5z" />
    <glyph glyph-name="Eacute" unicode="&#xc9;" horiz-adv-x="672" 
d="M73 51v599q0 49 26 49h514q13 0 20.5 -11t7.5 -26q0 -37 -28 -37h-466v-196h376q13 0 20.5 -11t7.5 -26q0 -37 -28 -37h-376v-281h466q13 0 20.5 -11t7.5 -26q0 -37 -28 -37h-514q-17 0 -21.5 12t-4.5 39zM322 774q0 46 35 111t78 65q22 0 40 -19.5t18 -39.5
q0 -12 -3.5 -21.5t-7.5 -15t-13 -12t-14 -9t-17.5 -7.5t-16.5 -7q-20 -9 -45.5 -40.5t-36.5 -31.5q-17 0 -17 27z" />
    <glyph glyph-name="Ecircumflex" unicode="&#xca;" horiz-adv-x="672" 
d="M73 51v599q0 49 26 49h514q13 0 20.5 -11t7.5 -26q0 -37 -28 -37h-466v-196h376q13 0 20.5 -11t7.5 -26q0 -37 -28 -37h-376v-281h466q13 0 20.5 -11t7.5 -26q0 -37 -28 -37h-514q-17 0 -21.5 12t-4.5 39zM190 786q0 6 4 11l115 118q3 3 8.5 9t8.5 8.5l7.5 6.5t7.5 6
t7 3.5t8 1.5t8.5 -2t10 -6t8.5 -7.5l9 -10.5l10 -9l117 -118q4 -4 4 -11q0 -13 -14.5 -24t-27.5 -11q-15 0 -29 14l-96 85l-95 -85q-13 -13 -28 -13t-29 10.5t-14 23.5z" />
    <glyph glyph-name="Edieresis" unicode="&#xcb;" horiz-adv-x="672" 
d="M73 51v599q0 49 26 49h514q13 0 20.5 -11t7.5 -26q0 -37 -28 -37h-466v-196h376q13 0 20.5 -11t7.5 -26q0 -37 -28 -37h-376v-281h466q13 0 20.5 -11t7.5 -26q0 -37 -28 -37h-514q-17 0 -21.5 12t-4.5 39zM166 820v28q0 22 18.5 35t49.5 13q27 0 46 -12.5t19 -35.5v-28
q0 -23 -20 -36.5t-46 -13.5q-31 0 -49 13.5t-18 36.5zM416 820v28q0 22 18.5 35t49.5 13q27 0 46 -12.5t19 -35.5v-28q0 -23 -20 -36.5t-46 -13.5q-31 0 -49 13.5t-18 36.5z" />
    <glyph glyph-name="Igrave" unicode="&#xcc;" horiz-adv-x="220" 
d="M-24 891q0 20 18 39.5t40 19.5q43 0 78 -65t35 -111q0 -27 -17 -27q-11 0 -36.5 31.5t-45.5 40.5q-4 2 -16.5 7t-17.5 7.5t-14 9t-13 12t-7.5 15t-3.5 21.5zM73 28v645q0 27 38 27q15 0 25.5 -7t10.5 -20v-645q0 -13 -11 -20.5t-26 -7.5q-37 0 -37 28z" />
    <glyph glyph-name="Iacute" unicode="&#xcd;" horiz-adv-x="220" 
d="M73 28v645q0 27 38 27q15 0 25.5 -7t10.5 -20v-645q0 -13 -11 -20.5t-26 -7.5q-37 0 -37 28zM81 774q0 46 35 111t78 65q22 0 40 -19.5t18 -39.5q0 -12 -3.5 -21.5t-7.5 -15t-13 -12t-14 -9t-17.5 -7.5t-16.5 -7q-20 -9 -45.5 -40.5t-36.5 -31.5q-17 0 -17 27z" />
    <glyph glyph-name="Icircumflex" unicode="&#xce;" horiz-adv-x="220" 
d="M-56 786q0 6 4 11l115 118q3 3 8.5 9t8.5 8.5l7.5 6.5t7.5 6t7 3.5t8 1.5t8.5 -2t10 -6t8.5 -7.5l9 -10.5l10 -9l117 -118q4 -4 4 -11q0 -13 -14.5 -24t-27.5 -11q-15 0 -29 14l-96 85l-95 -85q-13 -13 -28 -13t-29 10.5t-14 23.5zM73 28v645q0 27 38 27q15 0 25.5 -7
t10.5 -20v-645q0 -13 -11 -20.5t-26 -7.5q-37 0 -37 28z" />
    <glyph glyph-name="Idieresis" unicode="&#xcf;" horiz-adv-x="220" 
d="M-81 820v28q0 22 18.5 35t49.5 13q27 0 46 -12.5t19 -35.5v-28q0 -23 -20 -36.5t-46 -13.5q-31 0 -49 13.5t-18 36.5zM73 28v645q0 27 38 27q15 0 25.5 -7t10.5 -20v-645q0 -13 -11 -20.5t-26 -7.5q-37 0 -37 28zM169 820v28q0 22 18.5 35t49.5 13q27 0 46 -12.5
t19 -35.5v-28q0 -23 -20 -36.5t-46 -13.5q-31 0 -49 13.5t-18 36.5z" />
    <glyph glyph-name="Eth" unicode="&#xd0;" horiz-adv-x="739" 
d="M17 336q0 15 7 25.5t20 10.5h66v301q0 27 38 27q15 0 25.5 -7t10.5 -20v-4q65 42 139 42q150 0 260.5 -101.5t110.5 -254.5q0 -96 -43 -177.5t-130 -134t-202 -52.5q-77 0 -135 37q0 -13 -11 -20.5t-26 -7.5q-37 0 -37 28v270h-66q-27 0 -27 38zM184 124q55 -59 140 -59
q135 0 215 88t80 203q0 112 -81.5 196.5t-212.5 84.5q-65 0 -141 -49v-216h155q13 0 20.5 -11t7.5 -26q0 -37 -28 -37h-155v-174z" />
    <glyph glyph-name="Ntilde" unicode="&#xd1;" horiz-adv-x="718" 
d="M73 28v645q0 27 30 27q22 0 43 -19l425 -374v366q0 27 38 27q15 0 25.5 -7t10.5 -20v-645q0 -13 -11 -20.5t-26 -7.5q-37 0 -37 28v182l-424 373v-555q0 -13 -11 -20.5t-26 -7.5q-37 0 -37 28zM155 798q0 42 35.5 71t82.5 29q23 0 43.5 -7.5t30.5 -14.5t29 -23
q37 -28 65 -28q29 0 49 15t20 36q0 10 8.5 16t19.5 6q25 0 25 -43q-1 -42 -36 -71t-82 -29q-37 0 -67 16q-13 7 -32 23t-35 25t-34 9q-29 0 -49 -15t-20 -36q0 -10 -8.5 -16t-19.5 -6q-25 0 -25 43z" />
    <glyph glyph-name="Ograve" unicode="&#xd2;" 
d="M48 348q0 153 85.5 255t203.5 102t199.5 -104.5t81.5 -249.5q0 -160 -79.5 -257.5t-201.5 -98.5q-118 0 -203.5 99t-85.5 254zM122 347q0 -114 63.5 -196t151.5 -82q87 0 147 82.5t60 197.5q0 110 -60.5 196t-146.5 86q-88 0 -151.5 -87t-63.5 -197zM191 891
q0 20 18 39.5t40 19.5q43 0 78 -65t35 -111q0 -27 -17 -27q-11 0 -36.5 31.5t-45.5 40.5q-4 2 -16.5 7t-17.5 7.5t-14 9t-13 12t-7.5 15t-3.5 21.5z" />
    <glyph glyph-name="Oacute" unicode="&#xd3;" 
d="M48 348q0 153 85.5 255t203.5 102t199.5 -104.5t81.5 -249.5q0 -160 -79.5 -257.5t-201.5 -98.5q-118 0 -203.5 99t-85.5 254zM122 347q0 -114 63.5 -196t151.5 -82q87 0 147 82.5t60 197.5q0 110 -60.5 196t-146.5 86q-88 0 -151.5 -87t-63.5 -197zM305 774q0 46 35 111
t78 65q22 0 40 -19.5t18 -39.5q0 -12 -3.5 -21.5t-7.5 -15t-13 -12t-14 -9t-17.5 -7.5t-16.5 -7q-20 -9 -45.5 -40.5t-36.5 -31.5q-17 0 -17 27z" />
    <glyph glyph-name="Ocircumflex" unicode="&#xd4;" 
d="M48 348q0 153 85.5 255t203.5 102t199.5 -104.5t81.5 -249.5q0 -160 -79.5 -257.5t-201.5 -98.5q-118 0 -203.5 99t-85.5 254zM122 347q0 -114 63.5 -196t151.5 -82q87 0 147 82.5t60 197.5q0 110 -60.5 196t-146.5 86q-88 0 -151.5 -87t-63.5 -197zM166 786q0 6 4 11
l115 118q3 3 8.5 9t8.5 8.5l7.5 6.5t7.5 6t7 3.5t8 1.5t8.5 -2t10 -6t8.5 -7.5l9 -10.5l10 -9l117 -118q4 -4 4 -11q0 -13 -14.5 -24t-27.5 -11q-15 0 -29 14l-96 85l-95 -85q-13 -13 -28 -13t-29 10.5t-14 23.5z" />
    <glyph glyph-name="Otilde" unicode="&#xd5;" 
d="M48 348q0 153 85.5 255t203.5 102t199.5 -104.5t81.5 -249.5q0 -160 -79.5 -257.5t-201.5 -98.5q-118 0 -203.5 99t-85.5 254zM122 347q0 -114 63.5 -196t151.5 -82q87 0 147 82.5t60 197.5q0 110 -60.5 196t-146.5 86q-88 0 -151.5 -87t-63.5 -197zM129 798
q0 42 35.5 71t82.5 29q23 0 43.5 -7.5t30.5 -14.5t29 -23q37 -28 65 -28q29 0 49 15t20 36q0 10 8.5 16t19.5 6q25 0 25 -43q-1 -42 -36 -71t-82 -29q-37 0 -67 16q-13 7 -32 23t-35 25t-34 9q-29 0 -49 -15t-20 -36q0 -10 -8.5 -16t-19.5 -6q-25 0 -25 43z" />
    <glyph glyph-name="Odieresis" unicode="&#xd6;" 
d="M48 348q0 153 85.5 255t203.5 102t199.5 -104.5t81.5 -249.5q0 -160 -79.5 -257.5t-201.5 -98.5q-118 0 -203.5 99t-85.5 254zM122 347q0 -114 63.5 -196t151.5 -82q87 0 147 82.5t60 197.5q0 110 -60.5 196t-146.5 86q-88 0 -151.5 -87t-63.5 -197zM142 820v28
q0 22 18.5 35t49.5 13q27 0 46 -12.5t19 -35.5v-28q0 -23 -20 -36.5t-46 -13.5q-31 0 -49 13.5t-18 36.5zM392 820v28q0 22 18.5 35t49.5 13q27 0 46 -12.5t19 -35.5v-28q0 -23 -20 -36.5t-46 -13.5q-31 0 -49 13.5t-18 36.5z" />
    <glyph glyph-name="multiply" unicode="&#xd7;" horiz-adv-x="412" 
d="M68 170q0 10 7 17l78 78l-77 78q-7 7 -7 17q0 17 14 30t27 13q10 0 18 -8l78 -78l78 78q7 7 17 7q17 0 30 -14t13 -27q0 -10 -8 -18l-78 -78l79 -78q7 -7 7 -17q0 -13 -14 -28t-30 -15q-9 0 -16 7l-78 78l-78 -78q-7 -7 -17 -7q-13 0 -28 14t-15 29z" />
    <glyph glyph-name="Oslash" unicode="&#xd8;" horiz-adv-x="683" 
d="M15 35q0 17 16 37l72 78q-47 86 -47 198q0 153 85.5 255t203.5 102q105 0 185 -88l72 78q8 9 20 9q16 0 30 -12t14 -24q0 -11 -11 -25l-81 -88q52 -93 52 -204q0 -160 -79.5 -257.5t-201.5 -98.5q-115 0 -198 92l-70 -77q-9 -10 -23 -10q-15 0 -27 10t-12 25zM130 347
q0 -73 28 -137l321 351q-60 70 -134 70q-88 0 -151.5 -87t-63.5 -197zM199 143q61 -74 146 -74q87 0 147 82.5t60 197.5q0 76 -32 146z" />
    <glyph glyph-name="Ugrave" unicode="&#xd9;" horiz-adv-x="700" 
d="M68 214v458q1 13 11.5 20.5t24.5 7.5q37 0 37 -28v-449q0 -47 39.5 -83t85 -51t80.5 -15q42 0 89 15t85.5 50.5t38.5 83.5v449q0 28 37 28q14 0 24.5 -7.5t11.5 -20.5v-458q0 -60 -44 -110.5t-107.5 -77t-126.5 -26.5q-103 0 -194.5 62t-91.5 152zM216 891q0 20 18 39.5
t40 19.5q43 0 78 -65t35 -111q0 -27 -17 -27q-11 0 -36.5 31.5t-45.5 40.5q-4 2 -16.5 7t-17.5 7.5t-14 9t-13 12t-7.5 15t-3.5 21.5z" />
    <glyph glyph-name="Uacute" unicode="&#xda;" horiz-adv-x="700" 
d="M68 214v458q1 13 11.5 20.5t24.5 7.5q37 0 37 -28v-449q0 -47 39.5 -83t85 -51t80.5 -15q42 0 89 15t85.5 50.5t38.5 83.5v449q0 28 37 28q14 0 24.5 -7.5t11.5 -20.5v-458q0 -60 -44 -110.5t-107.5 -77t-126.5 -26.5q-103 0 -194.5 62t-91.5 152zM312 774q0 46 35 111
t78 65q22 0 40 -19.5t18 -39.5q0 -12 -3.5 -21.5t-7.5 -15t-13 -12t-14 -9t-17.5 -7.5t-16.5 -7q-20 -9 -45.5 -40.5t-36.5 -31.5q-17 0 -17 27z" />
    <glyph glyph-name="Ucircumflex" unicode="&#xdb;" horiz-adv-x="700" 
d="M68 214v458q1 13 11.5 20.5t24.5 7.5q37 0 37 -28v-449q0 -47 39.5 -83t85 -51t80.5 -15q42 0 89 15t85.5 50.5t38.5 83.5v449q0 28 37 28q14 0 24.5 -7.5t11.5 -20.5v-458q0 -60 -44 -110.5t-107.5 -77t-126.5 -26.5q-103 0 -194.5 62t-91.5 152zM183 786q0 6 4 11
l115 118q3 3 8.5 9t8.5 8.5l7.5 6.5t7.5 6t7 3.5t8 1.5t8.5 -2t10 -6t8.5 -7.5t10 -10.5l9 -9l117 -118q4 -4 4 -11q0 -13 -14.5 -24t-27.5 -11q-15 0 -29 14l-96 85l-95 -85q-13 -13 -28 -13t-29 10.5t-14 23.5z" />
    <glyph glyph-name="Udieresis" unicode="&#xdc;" horiz-adv-x="700" 
d="M68 214v458q1 13 11.5 20.5t24.5 7.5q37 0 37 -28v-449q0 -47 39.5 -83t85 -51t80.5 -15q42 0 89 15t85.5 50.5t38.5 83.5v449q0 28 37 28q14 0 24.5 -7.5t11.5 -20.5v-458q0 -60 -44 -110.5t-107.5 -77t-126.5 -26.5q-103 0 -194.5 62t-91.5 152zM159 820v28
q0 22 18.5 35t49.5 13q27 0 46 -12.5t19 -35.5v-28q0 -23 -20 -36.5t-46 -13.5q-31 0 -49 13.5t-18 36.5zM409 820v28q0 22 18.5 35t49.5 13q27 0 46 -12.5t19 -35.5v-28q0 -23 -20 -36.5t-46 -13.5q-31 0 -49 13.5t-18 36.5z" />
    <glyph glyph-name="Yacute" unicode="&#xdd;" horiz-adv-x="658" 
d="M47 444v228q1 13 11.5 20.5t24.5 7.5q37 0 37 -28v-219q0 -47 39.5 -83t85 -51t80.5 -15q42 0 89 15t85.5 50.5t38.5 83.5v219q0 28 37 28q14 0 24.5 -7.5t11.5 -20.5v-228q0 -82 -76 -141.5t-170 -70.5v-204q0 -13 -11 -20.5t-26 -7.5q-37 0 -37 28v205
q-96 13 -170 71.5t-74 139.5zM287 774q0 46 35 111t78 65q22 0 40 -19.5t18 -39.5q0 -12 -3.5 -21.5t-7.5 -15t-13 -12t-14 -9t-17.5 -7.5t-16.5 -7q-20 -9 -45.5 -40.5t-36.5 -31.5q-17 0 -17 27z" />
    <glyph glyph-name="Thorn" unicode="&#xde;" horiz-adv-x="632" 
d="M73 27v645q0 28 37 28q35 0 35 -31v-122q103 44 199 44q136 0 200 -65t64 -164q0 -112 -87 -161t-253 -49q-20 0 -60.5 3t-60.5 3v-131q0 -13 -10.5 -20t-25.5 -7q-38 0 -38 27zM147 244q41 -13 165 -13q100 0 161 35.5t61 106.5q0 61 -49 102.5t-151 41.5
q-88 0 -187 -53v-220z" />
    <glyph glyph-name="germandbls" unicode="&#xdf;" horiz-adv-x="490" 
d="M60 -122v787q0 25 17.5 43.5t45 27t52.5 12t49 3.5q75 0 121 -30.5t46 -97.5q0 -50 -18.5 -88t-36.5 -60.5t-18 -34.5q0 -14 14 -31t34 -37t39.5 -45.5t33.5 -64t14 -83.5q0 -71 -54.5 -125t-129.5 -54q-29 0 -60 14.5t-31 38.5q0 16 14 28t29 12q8 0 24.5 -10.5
t28.5 -10.5q45 0 75.5 33t30.5 84q0 38 -17 69t-41 51t-48 37.5t-41 37t-17 40.5q0 18 15.5 41t34 43t34 49t15.5 58q0 64 -82 64q-51 0 -99 -16v-785q0 -13 -11 -20.5t-26 -7.5q-37 0 -37 28z" />
    <glyph glyph-name="agrave" unicode="&#xe0;" horiz-adv-x="652" 
d="M38 182q0 134 105 231t238 97q91 0 155 -69t64 -157l-1 -262q0 -13 -12.5 -20.5t-27.5 -7.5q-33 0 -33 28v169q-81 -105 -154.5 -152t-151.5 -47q-72 0 -127 58.5t-55 131.5zM110 180q0 -57 40 -86.5t85 -29.5q52 0 119 51.5t111.5 115t44.5 99.5q0 30 -17.5 53.5
t-43 34.5t-46.5 16.5t-35 5.5q-98 0 -178 -78.5t-80 -181.5zM189 691q0 20 18 39.5t40 19.5q43 0 78 -65t35 -111q0 -27 -17 -27q-11 0 -36.5 31.5t-45.5 40.5q-4 2 -16.5 7t-17.5 7.5t-14 9t-13 12t-7.5 15t-3.5 21.5z" />
    <glyph glyph-name="aacute" unicode="&#xe1;" horiz-adv-x="652" 
d="M38 182q0 134 105 231t238 97q91 0 155 -69t64 -157l-1 -262q0 -13 -12.5 -20.5t-27.5 -7.5q-33 0 -33 28v169q-81 -105 -154.5 -152t-151.5 -47q-72 0 -127 58.5t-55 131.5zM110 180q0 -57 40 -86.5t85 -29.5q52 0 119 51.5t111.5 115t44.5 99.5q0 30 -17.5 53.5
t-43 34.5t-46.5 16.5t-35 5.5q-98 0 -178 -78.5t-80 -181.5zM264 574q0 46 35 111t78 65q22 0 40 -19.5t18 -39.5q0 -12 -3.5 -21.5t-7.5 -15t-13 -12t-14 -9t-17.5 -7.5t-16.5 -7q-20 -9 -45.5 -40.5t-36.5 -31.5q-17 0 -17 27z" />
    <glyph glyph-name="acircumflex" unicode="&#xe2;" horiz-adv-x="652" 
d="M38 182q0 134 105 231t238 97q91 0 155 -69t64 -157l-1 -262q0 -13 -12.5 -20.5t-27.5 -7.5q-33 0 -33 28v169q-81 -105 -154.5 -152t-151.5 -47q-72 0 -127 58.5t-55 131.5zM110 180q0 -57 40 -86.5t85 -29.5q52 0 119 51.5t111.5 115t44.5 99.5q0 30 -17.5 53.5
t-43 34.5t-46.5 16.5t-35 5.5q-98 0 -178 -78.5t-80 -181.5zM152 586q0 6 4 11l115 118q3 3 8.5 9t8.5 8.5l7.5 6.5t7.5 6t7 3.5t8 1.5t8.5 -2t10 -6t8.5 -7.5l9 -10.5l10 -9l117 -118q4 -4 4 -11q0 -13 -14.5 -24t-27.5 -11q-15 0 -29 14l-96 85l-95 -85q-13 -13 -28 -13
t-29 10.5t-14 23.5z" />
    <glyph glyph-name="atilde" unicode="&#xe3;" horiz-adv-x="652" 
d="M38 182q0 134 105 231t238 97q91 0 155 -69t64 -157l-1 -262q0 -13 -12.5 -20.5t-27.5 -7.5q-33 0 -33 28v169q-81 -105 -154.5 -152t-151.5 -47q-72 0 -127 58.5t-55 131.5zM110 180q0 -57 40 -86.5t85 -29.5q52 0 119 51.5t111.5 115t44.5 99.5q0 30 -17.5 53.5
t-43 34.5t-46.5 16.5t-35 5.5q-98 0 -178 -78.5t-80 -181.5zM115 598q0 42 35.5 71t82.5 29q23 0 43.5 -7.5t30.5 -14.5t29 -23q37 -28 65 -28q29 0 49 15t20 36q0 10 8.5 16t19.5 6q25 0 25 -43q-1 -42 -36 -71t-82 -29q-37 0 -67 16q-13 7 -32 23t-35 25t-34 9
q-29 0 -49 -15t-20 -36q0 -10 -8.5 -16t-19.5 -6q-25 0 -25 43z" />
    <glyph glyph-name="adieresis" unicode="&#xe4;" horiz-adv-x="652" 
d="M38 182q0 134 105 231t238 97q91 0 155 -69t64 -157l-1 -262q0 -13 -12.5 -20.5t-27.5 -7.5q-33 0 -33 28v169q-81 -105 -154.5 -152t-151.5 -47q-72 0 -127 58.5t-55 131.5zM110 180q0 -57 40 -86.5t85 -29.5q52 0 119 51.5t111.5 115t44.5 99.5q0 30 -17.5 53.5
t-43 34.5t-46.5 16.5t-35 5.5q-98 0 -178 -78.5t-80 -181.5zM128 620v28q0 22 18.5 35t49.5 13q27 0 46 -12.5t19 -35.5v-28q0 -23 -20 -36.5t-46 -13.5q-31 0 -49 13.5t-18 36.5zM378 620v28q0 22 18.5 35t49.5 13q27 0 46 -12.5t19 -35.5v-28q0 -23 -20 -36.5t-46 -13.5
q-31 0 -49 13.5t-18 36.5z" />
    <glyph glyph-name="aring" unicode="&#xe5;" horiz-adv-x="652" 
d="M38 182q0 134 105 231t238 97q91 0 155 -69t64 -157l-1 -262q0 -13 -12.5 -20.5t-27.5 -7.5q-33 0 -33 28v169q-81 -105 -154.5 -152t-151.5 -47q-72 0 -127 58.5t-55 131.5zM110 180q0 -57 40 -86.5t85 -29.5q52 0 119 51.5t111.5 115t44.5 99.5q0 30 -17.5 53.5
t-43 34.5t-46.5 16.5t-35 5.5q-98 0 -178 -78.5t-80 -181.5zM199 652q0 48 35 76t78 28q40 0 72.5 -29.5t32.5 -74.5q0 -42 -29.5 -72t-75.5 -30t-79.5 30.5t-33.5 71.5zM263 651q0 -14 15 -26.5t34 -12.5q15 0 27.5 13t12.5 27t-12 27.5t-28 13.5q-23 0 -36 -13.5
t-13 -28.5z" />
    <glyph glyph-name="ae" unicode="&#xe6;" horiz-adv-x="1078" 
d="M38 182q0 134 105 231t238 97q57 0 105.5 -29.5t78.5 -77.5q42 55 114 83.5t150 28.5q98 0 152 -42.5t54 -104.5q0 -67 -63 -114t-179 -47q-103 0 -198 28q3 -79 65 -125.5t147 -46.5q45 0 93.5 14t76.5 40q4 8 16 8q14 0 30 -12.5t16 -25.5q-25 -51 -97.5 -74.5
t-140.5 -23.5q-123 0 -202 81v-48q0 -13 -12.5 -20.5t-27.5 -7.5q-33 0 -33 28v169q-81 -105 -154.5 -152t-151.5 -47q-72 0 -127 58.5t-55 131.5zM110 180q0 -57 40 -86.5t85 -29.5q52 0 119 51.5t111.5 115t44.5 99.5q0 30 -17.5 53.5t-43 34.5t-46.5 16.5t-35 5.5
q-98 0 -178 -78.5t-80 -181.5zM599 314q75 -33 186 -33q87 0 132 27.5t45 61.5q0 30 -37.5 50.5t-111.5 20.5q-96 0 -148 -36t-66 -91z" />
    <glyph glyph-name="ccedilla" unicode="&#xe7;" horiz-adv-x="555" 
d="M38 248q0 86 46 148.5t111 90.5t136 28q90 0 167 -62q8 -7 8 -18q0 -16 -13 -29.5t-27 -13.5q-10 0 -17 7q-48 42 -120 42q-102 0 -159.5 -62t-57.5 -132q0 -71 66 -129.5t152 -58.5q88 0 143 63q11 11 19 11q15 0 29 -15t14 -29q0 -9 -7 -16q-77 -88 -193 -88
q-10 0 -28 2v-23q28 0 59 -24.5t31 -72.5q0 -44 -33 -68t-73 -24q-59 0 -87 23.5t-28 52.5q0 14 10.5 22t23.5 8q20 0 22 -15q3 -37 45 -37q19 0 33.5 9t14.5 25q0 19 -8.5 31.5t-25.5 18t-28 7t-30 2.5v79q-86 28 -140.5 96t-54.5 151z" />
    <glyph glyph-name="egrave" unicode="&#xe8;" horiz-adv-x="596" 
d="M38 264q0 64 28 114t74 79t99 43.5t108 14.5q98 0 152 -42.5t54 -104.5q0 -67 -63 -114t-179 -47q-104 0 -198 30q11 -74 69 -124t143 -50q45 0 93.5 14t76.5 40q4 8 16 8q14 0 30 -12.5t16 -25.5q-25 -51 -97.5 -74.5t-140.5 -23.5q-123 0 -202 81t-79 194zM117 314
q75 -33 186 -33q87 0 132 27.5t45 61.5q0 30 -37.5 50.5t-111.5 20.5q-80 0 -133.5 -35.5t-80.5 -91.5zM203 691q0 20 18 39.5t40 19.5q43 0 78 -65t35 -111q0 -27 -17 -27q-11 0 -36.5 31.5t-45.5 40.5q-4 2 -16.5 7t-17.5 7.5t-14 9t-13 12t-7.5 15t-3.5 21.5z" />
    <glyph glyph-name="eacute" unicode="&#xe9;" horiz-adv-x="596" 
d="M38 264q0 64 28 114t74 79t99 43.5t108 14.5q98 0 152 -42.5t54 -104.5q0 -67 -63 -114t-179 -47q-104 0 -198 30q11 -74 69 -124t143 -50q45 0 93.5 14t76.5 40q4 8 16 8q14 0 30 -12.5t16 -25.5q-25 -51 -97.5 -74.5t-140.5 -23.5q-123 0 -202 81t-79 194zM117 314
q75 -33 186 -33q87 0 132 27.5t45 61.5q0 30 -37.5 50.5t-111.5 20.5q-80 0 -133.5 -35.5t-80.5 -91.5zM251 574q0 46 35 111t78 65q22 0 40 -19.5t18 -39.5q0 -12 -3.5 -21.5t-7.5 -15t-13 -12t-14 -9t-17.5 -7.5t-16.5 -7q-20 -9 -45.5 -40.5t-36.5 -31.5q-17 0 -17 27z
" />
    <glyph glyph-name="ecircumflex" unicode="&#xea;" horiz-adv-x="596" 
d="M38 264q0 64 28 114t74 79t99 43.5t108 14.5q98 0 152 -42.5t54 -104.5q0 -67 -63 -114t-179 -47q-104 0 -198 30q11 -74 69 -124t143 -50q45 0 93.5 14t76.5 40q4 8 16 8q14 0 30 -12.5t16 -25.5q-25 -51 -97.5 -74.5t-140.5 -23.5q-123 0 -202 81t-79 194zM117 314
q75 -33 186 -33q87 0 132 27.5t45 61.5q0 30 -37.5 50.5t-111.5 20.5q-80 0 -133.5 -35.5t-80.5 -91.5zM131 586q0 6 4 11l115 118q3 3 8.5 9t8.5 8.5l7.5 6.5t7.5 6t7 3.5t8 1.5t8.5 -2t10 -6t8.5 -7.5t10 -10.5l9 -9l117 -118q4 -4 4 -11q0 -13 -14.5 -24t-27.5 -11
q-15 0 -29 14l-96 85l-95 -85q-13 -13 -28 -13t-29 10.5t-14 23.5z" />
    <glyph glyph-name="edieresis" unicode="&#xeb;" horiz-adv-x="596" 
d="M38 264q0 64 28 114t74 79t99 43.5t108 14.5q98 0 152 -42.5t54 -104.5q0 -67 -63 -114t-179 -47q-104 0 -198 30q11 -74 69 -124t143 -50q45 0 93.5 14t76.5 40q4 8 16 8q14 0 30 -12.5t16 -25.5q-25 -51 -97.5 -74.5t-140.5 -23.5q-123 0 -202 81t-79 194zM110 620v28
q0 22 18.5 35t49.5 13q27 0 46 -12.5t19 -35.5v-28q0 -23 -20 -36.5t-46 -13.5q-31 0 -49 13.5t-18 36.5zM117 314q75 -33 186 -33q87 0 132 27.5t45 61.5q0 30 -37.5 50.5t-111.5 20.5q-80 0 -133.5 -35.5t-80.5 -91.5zM360 620v28q0 22 18.5 35t49.5 13q27 0 46 -12.5
t19 -35.5v-28q0 -23 -20 -36.5t-46 -13.5q-31 0 -49 13.5t-18 36.5z" />
    <glyph glyph-name="igrave" unicode="&#xec;" horiz-adv-x="194" 
d="M-38 691q0 20 18 39.5t40 19.5q43 0 78 -65t35 -111q0 -27 -17 -27q-11 0 -36.5 31.5t-45.5 40.5q-4 2 -16.5 7t-17.5 7.5t-14 9t-13 12t-7.5 15t-3.5 21.5zM60 28v445q0 27 38 27q15 0 25.5 -7t10.5 -20v-445q0 -13 -11 -20.5t-26 -7.5q-37 0 -37 28z" />
    <glyph glyph-name="iacute" unicode="&#xed;" horiz-adv-x="194" 
d="M60 28v445q0 27 38 27q15 0 25.5 -7t10.5 -20v-445q0 -13 -11 -20.5t-26 -7.5q-37 0 -37 28zM64 574q0 46 35 111t78 65q22 0 40 -19.5t18 -39.5q0 -12 -3.5 -21.5t-7.5 -15t-13 -12t-14 -9t-17.5 -7.5t-16.5 -7q-20 -9 -45.5 -40.5t-36.5 -31.5q-17 0 -17 27z" />
    <glyph glyph-name="icircumflex" unicode="&#xee;" horiz-adv-x="194" 
d="M-69 586q0 6 4 11l115 118q3 3 8.5 9t8.5 8.5l7.5 6.5t7.5 6t7 3.5t8 1.5t8.5 -2t10 -6t8.5 -7.5t10 -10.5l9 -9l117 -118q4 -4 4 -11q0 -13 -14.5 -24t-27.5 -11q-15 0 -29 14l-96 85l-95 -85q-13 -13 -28 -13t-29 10.5t-14 23.5zM60 28v445q0 27 38 27q15 0 25.5 -7
t10.5 -20v-445q0 -13 -11 -20.5t-26 -7.5q-37 0 -37 28z" />
    <glyph glyph-name="idieresis" unicode="&#xef;" horiz-adv-x="194" 
d="M-94 620v28q0 22 18.5 35t49.5 13q27 0 46 -12.5t19 -35.5v-28q0 -23 -20 -36.5t-46 -13.5q-31 0 -49 13.5t-18 36.5zM60 28v445q0 27 38 27q15 0 25.5 -7t10.5 -20v-445q0 -13 -11 -20.5t-26 -7.5q-37 0 -37 28zM156 620v28q0 22 18.5 35t49.5 13q27 0 46 -12.5
t19 -35.5v-28q0 -23 -20 -36.5t-46 -13.5q-31 0 -49 13.5t-18 36.5z" />
    <glyph glyph-name="eth" unicode="&#xf0;" horiz-adv-x="501" 
d="M37 201q0 85 60.5 142.5t140.5 57.5q64 0 119 -46q-20 69 -100 152l-74 -60q-7 -7 -17 -7q-13 0 -28 14t-15 29q0 10 7 17l74 60l-39 33q-12 10 -22 24.5t-10 24.5q0 14 11 26.5t33 12.5q20 0 64 -38l32 -28l73 59q7 7 17 7q17 0 30 -14t13 -27q0 -10 -8 -18l-71 -58
q131 -141 131 -318q0 -114 -54 -182.5t-158 -68.5q-97 0 -153 61.5t-56 144.5zM111 200q0 -60 43.5 -94.5t94.5 -34.5q43 0 79 32t36 81q0 57 -36 95.5t-84 38.5q-56 0 -94.5 -34.5t-38.5 -83.5z" />
    <glyph glyph-name="ntilde" unicode="&#xf1;" horiz-adv-x="673" 
d="M60 26v447q0 13 10.5 20t25.5 7q38 0 38 -27v-79q50 54 121 85.5t144 31.5q94 0 157.5 -58.5t63.5 -152.5q0 -9 -0.5 -91.5t-0.5 -180.5q0 -13 -11 -20.5t-26 -7.5q-37 0 -37 28v263q0 71 -50.5 109t-104.5 38q-73 0 -149.5 -48.5t-106.5 -122.5v-241q0 -27 -38 -27
q-15 0 -25.5 7t-10.5 20zM136 598q0 42 35.5 71t82.5 29q23 0 43.5 -7.5t30.5 -14.5t29 -23q37 -28 65 -28q29 0 49 15t20 36q0 10 8.5 16t19.5 6q25 0 25 -43q-1 -42 -36 -71t-82 -29q-37 0 -67 16q-13 7 -32 23t-35 25t-34 9q-29 0 -49 -15t-20 -36q0 -10 -8.5 -16
t-19.5 -6q-25 0 -25 43z" />
    <glyph glyph-name="ograve" unicode="&#xf2;" horiz-adv-x="636" 
d="M38 248q0 86 45.5 148.5t110 90.5t135.5 28q100 0 184.5 -75.5t84.5 -190.5q0 -109 -75 -186.5t-196 -77.5q-119 0 -204 77.5t-85 185.5zM112 247q0 -71 65 -129.5t151 -58.5q81 0 138.5 59t57.5 131q0 70 -55 131t-142 61q-102 0 -158.5 -62t-56.5 -132zM203 691
q0 20 18 39.5t40 19.5q43 0 78 -65t35 -111q0 -27 -17 -27q-11 0 -36.5 31.5t-45.5 40.5q-4 2 -16.5 7t-17.5 7.5t-14 9t-13 12t-7.5 15t-3.5 21.5z" />
    <glyph glyph-name="oacute" unicode="&#xf3;" horiz-adv-x="636" 
d="M38 248q0 86 45.5 148.5t110 90.5t135.5 28q100 0 184.5 -75.5t84.5 -190.5q0 -109 -75 -186.5t-196 -77.5q-119 0 -204 77.5t-85 185.5zM112 247q0 -71 65 -129.5t151 -58.5q81 0 138.5 59t57.5 131q0 70 -55 131t-142 61q-102 0 -158.5 -62t-56.5 -132zM265 574
q0 46 35 111t78 65q22 0 40 -19.5t18 -39.5q0 -12 -3.5 -21.5t-7.5 -15t-13 -12t-14 -9t-17.5 -7.5t-16.5 -7q-20 -9 -45.5 -40.5t-36.5 -31.5q-17 0 -17 27z" />
    <glyph glyph-name="ocircumflex" unicode="&#xf4;" horiz-adv-x="636" 
d="M38 248q0 86 45.5 148.5t110 90.5t135.5 28q100 0 184.5 -75.5t84.5 -190.5q0 -109 -75 -186.5t-196 -77.5q-119 0 -204 77.5t-85 185.5zM112 247q0 -71 65 -129.5t151 -58.5q81 0 138.5 59t57.5 131q0 70 -55 131t-142 61q-102 0 -158.5 -62t-56.5 -132zM151 586
q0 6 4 11l115 118q3 3 8.5 9t8.5 8.5l7.5 6.5t7.5 6t7 3.5t8 1.5t8.5 -2t10 -6t8.5 -7.5t10 -10.5l9 -9l117 -118q4 -4 4 -11q0 -13 -14.5 -24t-27.5 -11q-15 0 -29 14l-96 85l-95 -85q-13 -13 -28 -13t-29 10.5t-14 23.5z" />
    <glyph glyph-name="otilde" unicode="&#xf5;" horiz-adv-x="636" 
d="M38 248q0 86 45.5 148.5t110 90.5t135.5 28q100 0 184.5 -75.5t84.5 -190.5q0 -109 -75 -186.5t-196 -77.5q-119 0 -204 77.5t-85 185.5zM112 247q0 -71 65 -129.5t151 -58.5q81 0 138.5 59t57.5 131q0 70 -55 131t-142 61q-102 0 -158.5 -62t-56.5 -132zM114 598
q0 42 35.5 71t82.5 29q23 0 43.5 -7.5t30.5 -14.5t29 -23q37 -28 65 -28q29 0 49 15t20 36q0 10 8.5 16t19.5 6q25 0 25 -43q-1 -42 -36 -71t-82 -29q-37 0 -67 16q-13 7 -32 23t-35 25t-34 9q-29 0 -49 -15t-20 -36q0 -10 -8.5 -16t-19.5 -6q-25 0 -25 43z" />
    <glyph glyph-name="odieresis" unicode="&#xf6;" horiz-adv-x="636" 
d="M38 248q0 86 45.5 148.5t110 90.5t135.5 28q100 0 184.5 -75.5t84.5 -190.5q0 -109 -75 -186.5t-196 -77.5q-119 0 -204 77.5t-85 185.5zM112 247q0 -71 65 -129.5t151 -58.5q81 0 138.5 59t57.5 131q0 70 -55 131t-142 61q-102 0 -158.5 -62t-56.5 -132zM127 620v28
q0 22 18.5 35t49.5 13q27 0 46 -12.5t19 -35.5v-28q0 -23 -20 -36.5t-46 -13.5q-31 0 -49 13.5t-18 36.5zM377 620v28q0 22 18.5 35t49.5 13q27 0 46 -12.5t19 -35.5v-28q0 -23 -20 -36.5t-46 -13.5q-31 0 -49 13.5t-18 36.5z" />
    <glyph glyph-name="divide" unicode="&#xf7;" horiz-adv-x="446" 
d="M48 214q0 15 7 25.5t20 10.5h295q13 0 20.5 -11t7.5 -26q0 -37 -28 -37h-295q-27 0 -27 38zM154 50v28q0 22 18.5 35t49.5 13q27 0 46 -12.5t19 -35.5v-28q0 -23 -20 -36.5t-46 -13.5q-31 0 -49 13.5t-18 36.5zM154 350v28q0 22 18.5 35t49.5 13q27 0 46 -12.5t19 -35.5
v-28q0 -23 -20 -36.5t-46 -13.5q-31 0 -49 13.5t-18 36.5z" />
    <glyph glyph-name="oslash" unicode="&#xf8;" horiz-adv-x="636" 
d="M36 -49q0 17 16 37l65 79q-79 77 -79 181q0 86 45.5 148.5t110 90.5t135.5 28q63 0 128 -35l91 110q8 9 20 9q16 0 30 -12t14 -24q0 -11 -11 -25l-84 -102q81 -78 81 -187t-75 -186.5t-196 -77.5q-78 0 -149 38l-80 -97q-9 -10 -23 -10q-15 0 -27 10t-12 25zM112 247
q0 -65 55 -120l243 296q-39 18 -83 18q-102 0 -158.5 -62t-56.5 -132zM227 83q48 -24 101 -24q81 0 138.5 59t57.5 131q0 70 -54 129z" />
    <glyph glyph-name="ugrave" unicode="&#xf9;" horiz-adv-x="670" 
d="M53 204q0 9 0.5 89.5t0.5 178.5q0 13 11 20.5t26 7.5q37 0 37 -28v-259q0 -71 50.5 -110.5t104.5 -39.5q68 0 145.5 49.5t107.5 123.5v237q0 27 38 27q15 0 25.5 -7t10.5 -20v-446q0 -13 -10.5 -20t-25.5 -7q-38 0 -38 27v82q-50 -55 -119.5 -87t-142.5 -32
q-94 0 -157.5 60t-63.5 154zM202 691q0 20 18 39.5t40 19.5q43 0 78 -65t35 -111q0 -27 -17 -27q-11 0 -36.5 31.5t-45.5 40.5q-4 2 -16.5 7t-17.5 7.5t-14 9t-13 12t-7.5 15t-3.5 21.5z" />
    <glyph glyph-name="uacute" unicode="&#xfa;" horiz-adv-x="670" 
d="M53 204q0 9 0.5 89.5t0.5 178.5q0 13 11 20.5t26 7.5q37 0 37 -28v-259q0 -71 50.5 -110.5t104.5 -39.5q68 0 145.5 49.5t107.5 123.5v237q0 27 38 27q15 0 25.5 -7t10.5 -20v-446q0 -13 -10.5 -20t-25.5 -7q-38 0 -38 27v82q-50 -55 -119.5 -87t-142.5 -32
q-94 0 -157.5 60t-63.5 154zM275 574q0 46 35 111t78 65q22 0 40 -19.5t18 -39.5q0 -12 -3.5 -21.5t-7.5 -15t-13 -12t-14 -9t-17.5 -7.5t-16.5 -7q-20 -9 -45.5 -40.5t-36.5 -31.5q-17 0 -17 27z" />
    <glyph glyph-name="ucircumflex" unicode="&#xfb;" horiz-adv-x="670" 
d="M53 204q0 9 0.5 89.5t0.5 178.5q0 13 11 20.5t26 7.5q37 0 37 -28v-259q0 -71 50.5 -110.5t104.5 -39.5q68 0 145.5 49.5t107.5 123.5v237q0 27 38 27q15 0 25.5 -7t10.5 -20v-446q0 -13 -10.5 -20t-25.5 -7q-38 0 -38 27v82q-50 -55 -119.5 -87t-142.5 -32
q-94 0 -157.5 60t-63.5 154zM165 586q0 6 4 11l115 118q3 3 8.5 9t8.5 8.5l7.5 6.5t7.5 6t7 3.5t8 1.5t8.5 -2t10 -6t8.5 -7.5t10 -10.5l9 -9l117 -118q4 -4 4 -11q0 -13 -14.5 -24t-27.5 -11q-15 0 -29 14l-96 85l-95 -85q-13 -13 -28 -13t-29 10.5t-14 23.5z" />
    <glyph glyph-name="udieresis" unicode="&#xfc;" horiz-adv-x="670" 
d="M53 204q0 9 0.5 89.5t0.5 178.5q0 13 11 20.5t26 7.5q37 0 37 -28v-259q0 -71 50.5 -110.5t104.5 -39.5q68 0 145.5 49.5t107.5 123.5v237q0 27 38 27q15 0 25.5 -7t10.5 -20v-446q0 -13 -10.5 -20t-25.5 -7q-38 0 -38 27v82q-50 -55 -119.5 -87t-142.5 -32
q-94 0 -157.5 60t-63.5 154zM141 620v28q0 22 18.5 35t49.5 13q27 0 46 -12.5t19 -35.5v-28q0 -23 -20 -36.5t-46 -13.5q-31 0 -49 13.5t-18 36.5zM391 620v28q0 22 18.5 35t49.5 13q27 0 46 -12.5t19 -35.5v-28q0 -23 -20 -36.5t-46 -13.5q-31 0 -49 13.5t-18 36.5z" />
    <glyph glyph-name="yacute" unicode="&#xfd;" 
d="M54 204v270q0 13 10.5 20.5t24.5 7.5q37 0 37 -28v-261q0 -37 20 -66t50.5 -44t60 -22.5t54.5 -7.5q71 0 134 44t89 117v240q0 27 38 27q15 0 25.5 -7t10.5 -20v-479q0 -59 -26.5 -108.5t-68.5 -79.5t-91 -46t-97 -16q-82 0 -160.5 38t-79.5 102q0 16 10.5 24.5t25.5 8.5
q16 0 28 -9t12 -23q0 -32 57 -49.5t112 -17.5q45 0 89.5 16.5t79.5 57t35 95.5v116q-91 -104 -232 -104q-98 0 -173 56.5t-75 147.5zM281 574q0 46 35 111t78 65q22 0 40 -19.5t18 -39.5q0 -12 -3.5 -21.5t-7.5 -15t-13 -12t-14 -9t-17.5 -7.5t-16.5 -7q-20 -9 -45.5 -40.5
t-36.5 -31.5q-17 0 -17 27z" />
    <glyph glyph-name="thorn" unicode="&#xfe;" horiz-adv-x="658" 
d="M60 -224v945q0 13 10.5 20t25.5 7q38 0 38 -27v-267q61 55 144 55q86 0 164.5 -41t127.5 -115.5t49 -163.5q0 -76 -59.5 -132.5t-144.5 -56.5q-186 0 -281 145v-369q0 -28 -37 -28q-15 0 -26 7.5t-11 20.5zM133 311q0 -50 41 -106.5t103.5 -94t118.5 -37.5q60 0 102.5 30
t42.5 98q0 66 -42.5 121.5t-102.5 83.5t-118 28q-48 0 -96.5 -31t-48.5 -92z" />
    <glyph glyph-name="ydieresis" unicode="&#xff;" 
d="M54 204v270q0 13 10.5 20.5t24.5 7.5q37 0 37 -28v-261q0 -37 20 -66t50.5 -44t60 -22.5t54.5 -7.5q71 0 134 44t89 117v240q0 27 38 27q15 0 25.5 -7t10.5 -20v-479q0 -59 -26.5 -108.5t-68.5 -79.5t-91 -46t-97 -16q-82 0 -160.5 38t-79.5 102q0 16 10.5 24.5t25.5 8.5
q16 0 28 -9t12 -23q0 -32 57 -49.5t112 -17.5q45 0 89.5 16.5t79.5 57t35 95.5v116q-91 -104 -232 -104q-98 0 -173 56.5t-75 147.5zM139 620v28q0 22 18.5 35t49.5 13q27 0 46 -12.5t19 -35.5v-28q0 -23 -20 -36.5t-46 -13.5q-31 0 -49 13.5t-18 36.5zM389 620v28
q0 22 18.5 35t49.5 13q27 0 46 -12.5t19 -35.5v-28q0 -23 -20 -36.5t-46 -13.5q-31 0 -49 13.5t-18 36.5z" />
    <glyph glyph-name="OE" unicode="&#x152;" horiz-adv-x="711" 
d="M46 348q0 76 28.5 143t73.5 111.5t101.5 70.5t112.5 26h294q13 0 20.5 -11t7.5 -26q0 -37 -28 -37h-246v-196h156q13 0 20.5 -11t7.5 -26q0 -37 -28 -37h-156v-281h246q13 0 20.5 -11t7.5 -26q0 -37 -28 -37h-294l-7 1q-57 8 -111 34.5t-99 68.5t-72 105.5t-27 138.5z
M120 347q0 -101 65.5 -179t150.5 -92v546q-84 -15 -150 -96.5t-66 -178.5z" />
    <glyph glyph-name="oe" unicode="&#x153;" horiz-adv-x="936" 
d="M38 248q0 86 45.5 148.5t110 90.5t135.5 28q84 0 158 -54q85 54 200 54q98 0 152 -42.5t54 -104.5q0 -67 -63 -114t-179 -47q-104 0 -198 30q11 -74 69 -124t143 -50q45 0 93.5 14t76.5 40q4 8 16 8q14 0 30 -12.5t16 -25.5q-25 -51 -97.5 -74.5t-140.5 -23.5
q-96 0 -168 51q-66 -55 -164 -55q-119 0 -204 77.5t-85 185.5zM112 247q0 -71 65 -129.5t151 -58.5q59 0 106 37q-56 73 -56 168q0 86 52 148q-51 29 -103 29q-102 0 -158.5 -62t-56.5 -132zM457 314q75 -33 186 -33q87 0 132 27.5t45 61.5q0 30 -37.5 50.5t-111.5 20.5
q-96 0 -148 -36t-66 -91z" />
    <glyph glyph-name="Scaron" unicode="&#x160;" horiz-adv-x="644" 
d="M45 127q0 14 12 30.5t27 16.5q5 0 7 -2q37 -37 109.5 -67.5t135.5 -30.5q183 0 183 119q0 46 -34 69.5t-85 27t-110 9.5t-110 16t-85 47.5t-34 102.5q0 56 38 97t94.5 59.5t124.5 18.5q83 0 155 -26.5t106 -74.5q1 -2 1 -5q0 -12 -17 -24.5t-30 -12.5q-1 0 -13 5
q-80 65 -201 65q-46 0 -85.5 -10t-68.5 -35t-29 -62t25.5 -58t66 -27t89.5 -8t97.5 -8.5t89 -21.5t66 -53t25.5 -97q0 -100 -70 -143t-182 -43q-82 0 -161 28.5t-130 78.5q-7 7 -7 19zM163 835q0 13 14 23.5t29 10.5t28 -13l95 -85l96 85q14 14 29 14q13 0 27.5 -11
t14.5 -24q0 -7 -4 -11l-117 -118l-9 -10q-7 -6 -10 -9.5t-8.5 -7.5t-10 -6t-8.5 -2t-8 1.5t-7 3.5t-7.5 6l-7.5 6.5t-8.5 8.5t-8.5 9l-115 118q-4 5 -4 11z" />
    <glyph glyph-name="scaron" unicode="&#x161;" horiz-adv-x="579" 
d="M39 95q0 13 11.5 28t26.5 19q7 0 7 -2q32 -35 92 -54.5t94.5 -22.5t64.5 -3q130 0 130 79q0 27 -19.5 43.5t-53 22.5t-67.5 8t-74 3.5t-61 5.5q-57 11 -101 46.5t-44 83.5q0 76 76.5 116.5t168.5 40.5q62 0 133 -21.5t106 -66.5q1 -2 1 -5q0 -13 -12 -30.5t-23 -17.5
q-10 0 -20 16q-48 51 -191 51q-59 0 -112 -20t-53 -59q0 -33 46 -49.5t98 -16.5q37 0 62 -1t61 -5.5t60 -15t47 -27t34.5 -44t11.5 -64.5q0 -51 -31.5 -85.5t-72 -48t-85.5 -13.5q-211 0 -304 90q-7 7 -7 19zM128 715q0 13 14 23.5t29 10.5t28 -13l95 -85l96 85q14 14 29 14
q13 0 27.5 -11t14.5 -24q0 -7 -4 -11l-117 -118l-10 -10q-6 -6 -9 -9.5t-8.5 -7.5t-10 -6t-8.5 -2t-8 1.5t-7 3.5t-7.5 6l-7.5 6.5t-8.5 8.5t-8.5 9l-115 118q-4 5 -4 11z" />
    <glyph glyph-name="Ydieresis" unicode="&#x178;" horiz-adv-x="658" 
d="M47 444v228q1 13 11.5 20.5t24.5 7.5q37 0 37 -28v-219q0 -47 39.5 -83t85 -51t80.5 -15q42 0 89 15t85.5 50.5t38.5 83.5v219q0 28 37 28q14 0 24.5 -7.5t11.5 -20.5v-228q0 -82 -76 -141.5t-170 -70.5v-204q0 -13 -11 -20.5t-26 -7.5q-37 0 -37 28v205
q-96 13 -170 71.5t-74 139.5zM138 820v28q0 22 18.5 35t49.5 13q27 0 46 -12.5t19 -35.5v-28q0 -23 -20 -36.5t-46 -13.5q-31 0 -49 13.5t-18 36.5zM388 820v28q0 22 18.5 35t49.5 13q27 0 46 -12.5t19 -35.5v-28q0 -23 -20 -36.5t-46 -13.5q-31 0 -49 13.5t-18 36.5z" />
    <glyph glyph-name="Zcaron" unicode="&#x17d;" horiz-adv-x="660" 
d="M30 33q0 10 7 18l440 485h-399q-27 0 -27 38q0 15 7 25.5t20 10.5h481q54 0 54 -28q0 -14 -11 -25l-439 -482h436q13 0 20.5 -11t7.5 -26q0 -37 -28 -37h-515q-24 0 -39 9t-15 23zM148 815q0 13 14 23.5t29 10.5t28 -13l95 -85l96 85q14 14 29 14q13 0 27.5 -11t14.5 -24
q0 -7 -4 -11l-117 -118l-10 -10q-6 -6 -9 -9.5t-8.5 -7.5t-10 -6t-8.5 -2t-8 1.5t-7 3.5t-7.5 6l-7.5 6.5t-8.5 8.5t-8.5 9l-115 118q-4 5 -4 11z" />
    <glyph glyph-name="zcaron" unicode="&#x17e;" horiz-adv-x="606" 
d="M20 34q0 7 4 14l421 378h-375q-28 0 -28 37q0 15 7.5 26t20.5 11h468q38 0 38 -31q0 -19 -16 -40l-404 -355h392q13 0 20 -10.5t7 -25.5q0 -38 -27 -38h-487q-13 0 -22 5q-19 12 -19 29zM132 715q0 13 14 23.5t29 10.5t28 -13l95 -85l96 85q14 14 29 14q13 0 27.5 -11
t14.5 -24q0 -7 -4 -11l-117 -118l-10 -10q-6 -6 -9 -9.5t-8.5 -7.5t-10 -6t-8.5 -2t-8 1.5t-7 3.5t-7.5 6l-7.5 6.5t-8.5 8.5t-8.5 9l-115 118q-4 5 -4 11z" />
    <glyph glyph-name="florin" unicode="&#x192;" horiz-adv-x="376" 
d="M-46 -108q0 16 9 28t24 12q3 0 13.5 -1t18.5 -1q75 5 75 112v329h-33q-13 0 -20.5 11t-7.5 26q0 37 28 37h33v92q0 213 160 213q69 0 116 -42t48 -121q0 -16 -10.5 -24.5t-25.5 -8.5q-16 0 -27 9t-11 23q0 50 -27 70t-63 20q-85 0 -85 -112v-119h160q27 0 27 -38
q0 -15 -7 -25.5t-20 -10.5h-161v-302q0 -38 -2 -64.5t-11 -56.5t-25 -48.5t-44.5 -31t-69.5 -12.5q-32 0 -47 7.5t-15 28.5z" />
    <glyph glyph-name="circumflex" unicode="&#x2c6;" horiz-adv-x="392" 
d="M24 586q0 6 4 11l115 118q3 3 8.5 9t8.5 8.5l7.5 6.5t7.5 6t7 3.5t8 1.5t8.5 -2t10 -6t8.5 -7.5l9 -10.5l10 -9l117 -118q4 -4 4 -11q0 -13 -14.5 -24t-27.5 -11q-15 0 -29 14l-96 85l-95 -85q-13 -13 -28 -13t-29 10.5t-14 23.5z" />
    <glyph glyph-name="tilde" unicode="&#x2dc;" horiz-adv-x="460" 
d="M19 598q0 42 35.5 71t82.5 29q23 0 43.5 -7.5t30.5 -14.5t29 -23q37 -28 65 -28q29 0 49 15t20 36q0 10 8.5 16t19.5 6q25 0 25 -43q-1 -42 -36 -71t-82 -29q-37 0 -67 16q-13 7 -32 23t-35 25t-34 9q-29 0 -49 -15t-20 -36q0 -10 -8.5 -16t-19.5 -6q-25 0 -25 43z" />
    <glyph glyph-name="endash" unicode="&#x2013;" horiz-adv-x="470" 
d="M60 266q0 15 7 25.5t20 10.5h295q13 0 20.5 -11t7.5 -26q0 -37 -28 -37h-295q-27 0 -27 38z" />
    <glyph glyph-name="emdash" unicode="&#x2014;" horiz-adv-x="680" 
d="M60 266q0 15 7 25.5t20 10.5h505q13 0 20.5 -11t7.5 -26q0 -37 -28 -37h-505q-27 0 -27 38z" />
    <glyph glyph-name="quoteleft" unicode="&#x2018;" horiz-adv-x="242" 
d="M55 599q0 43 38 97t57 54q18 0 18 -12q0 -5 -8.5 -33.5t-8.5 -41.5t7 -17q32 -22 32 -65q0 -26 -19.5 -42t-50.5 -16q-65 0 -65 76z" />
    <glyph glyph-name="quoteright" unicode="&#x2019;" horiz-adv-x="235" 
d="M53 692q0 26 19.5 42t50.5 16q65 0 65 -76q0 -43 -38 -97t-57 -54q-18 0 -18 12q0 5 8.5 33.5t8.5 41.5t-7 17q-32 22 -32 65z" />
    <glyph glyph-name="quotesinglbase" unicode="&#x201a;" horiz-adv-x="253" 
d="M58 68q0 26 19.5 42t50.5 16q65 0 65 -76q0 -43 -38 -97t-57 -54q-18 0 -18 12q0 5 8.5 33.5t8.5 41.5t-7 17q-32 22 -32 65z" />
    <glyph glyph-name="quotedblleft" unicode="&#x201c;" horiz-adv-x="442" 
d="M55 599q0 43 38 97t57 54q18 0 18 -12q0 -5 -8.5 -33.5t-8.5 -41.5t7 -17q32 -22 32 -65q0 -26 -19.5 -42t-50.5 -16q-65 0 -65 76zM255 599q0 43 38 97t57 54q18 0 18 -12q0 -5 -8.5 -33.5t-8.5 -41.5t7 -17q32 -22 32 -65q0 -26 -19.5 -42t-50.5 -16q-65 0 -65 76z" />
    <glyph glyph-name="quotedblright" unicode="&#x201d;" horiz-adv-x="435" 
d="M53 692q0 26 19.5 42t50.5 16q65 0 65 -76q0 -43 -38 -97t-57 -54q-18 0 -18 12q0 5 8.5 33.5t8.5 41.5t-7 17q-32 22 -32 65zM253 692q0 26 19.5 42t50.5 16q65 0 65 -76q0 -43 -38 -97t-57 -54q-18 0 -18 12q0 5 8.5 33.5t8.5 41.5t-7 17q-32 22 -32 65z" />
    <glyph glyph-name="quotedblbase" unicode="&#x201e;" horiz-adv-x="443" 
d="M58 68q0 26 19.5 42t50.5 16q65 0 65 -76q0 -43 -38 -97t-57 -54q-18 0 -18 12q0 5 8.5 33.5t8.5 41.5t-7 17q-32 22 -32 65zM248 68q0 26 19.5 42t50.5 16q65 0 65 -76q0 -43 -38 -97t-57 -54q-18 0 -18 12q0 5 8.5 33.5t8.5 41.5t-7 17q-32 22 -32 65z" />
    <glyph glyph-name="dagger" unicode="&#x2020;" horiz-adv-x="420" 
d="M35 266q0 15 7 25.5t20 10.5h111v421q0 27 38 27q15 0 25.5 -7t10.5 -20v-421h110q13 0 20.5 -11t7.5 -26q0 -37 -28 -37h-110v-370q0 -13 -11 -20.5t-26 -7.5q-37 0 -37 28v370h-111q-27 0 -27 38z" />
    <glyph glyph-name="daggerdbl" unicode="&#x2021;" horiz-adv-x="585" 
d="M37 196q0 15 7 25.5t20 10.5h191v124h-191q-27 0 -27 38q0 15 7 25.5t20 10.5h191v293q0 27 38 27q15 0 25.5 -7t10.5 -20v-293h190q13 0 20.5 -11t7.5 -26q0 -37 -28 -37h-190v-124h190q13 0 20.5 -11t7.5 -26q0 -37 -28 -37h-190v-300q0 -13 -11 -20.5t-26 -7.5
q-37 0 -37 28v300h-191q-27 0 -27 38z" />
    <glyph glyph-name="bullet" unicode="&#x2022;" horiz-adv-x="409" 
d="M53 321q0 68 48 106t109 38q54 0 99.5 -40.5t45.5 -103.5q0 -59 -40.5 -100.5t-106.5 -41.5q-64 0 -109.5 42t-45.5 100z" />
    <glyph glyph-name="ellipsis" unicode="&#x2026;" horiz-adv-x="703" 
d="M60 50v28q0 22 18.5 35t49.5 13q27 0 46 -12.5t19 -35.5v-28q0 -23 -20 -36.5t-46 -13.5q-31 0 -49 13.5t-18 36.5zM285 50v28q0 22 18.5 35t49.5 13q27 0 46 -12.5t19 -35.5v-28q0 -23 -20 -36.5t-46 -13.5q-31 0 -49 13.5t-18 36.5zM510 50v28q0 22 18.5 35t49.5 13
q27 0 46 -12.5t19 -35.5v-28q0 -23 -20 -36.5t-46 -13.5q-31 0 -49 13.5t-18 36.5z" />
    <glyph glyph-name="perthousand" unicode="&#x2030;" horiz-adv-x="1351" 
d="M37 439q0 75 53.5 117.5t121.5 42.5q60 0 110.5 -45t50.5 -115q0 -65 -45 -111.5t-118 -46.5q-71 0 -122 46.5t-51 111.5zM111 438q0 -30 30.5 -56.5t67.5 -26.5q35 0 62.5 26.5t27.5 57.5q0 30 -26 58t-64 28q-44 0 -71 -28.5t-27 -58.5zM308 38q0 9 16 37l247 509
q5 9 20 9q19 0 32 -11.5t13 -26.5q0 -13 -8 -27l-254 -519q-5 -10 -23 -10q-15 0 -29 12t-14 27zM569 139q0 75 53.5 117.5t121.5 42.5q60 0 110.5 -45t50.5 -115q0 -65 -45 -111.5t-118 -46.5q-71 0 -122 46.5t-51 111.5zM643 138q0 -30 30.5 -56.5t67.5 -26.5
q35 0 62.5 26.5t27.5 57.5q0 30 -26 58t-64 28q-44 0 -71 -28.5t-27 -58.5zM979 139q0 75 53.5 117.5t121.5 42.5q60 0 110.5 -45t50.5 -115q0 -65 -45 -111.5t-118 -46.5q-71 0 -122 46.5t-51 111.5zM1053 138q0 -30 30.5 -56.5t67.5 -26.5q35 0 62.5 26.5t27.5 57.5
q0 30 -26 58t-64 28q-44 0 -71 -28.5t-27 -58.5z" />
    <glyph glyph-name="guilsinglleft" unicode="&#x2039;" horiz-adv-x="479" 
d="M29 311q0 22 33 47l318 247q6 2 10 2q15 0 26 -15t11 -30q0 -16 -15 -24l-285 -226l285 -235q15 -8 15 -24q0 -15 -11 -30t-26 -15q-4 0 -10 2l-318 255q-33 22 -33 46z" />
    <glyph glyph-name="guilsinglright" unicode="&#x203a;" horiz-adv-x="479" 
d="M52 53q0 16 15 24l285 235l-285 226q-15 8 -15 24q0 15 11 30t26 15q4 0 10 -2l318 -247q33 -22 33 -47q0 -24 -33 -46l-318 -255q-6 -2 -10 -2q-15 0 -26 15t-11 30z" />
    <glyph glyph-name="Euro" unicode="&#x20ac;" horiz-adv-x="694" 
d="M43 266q0 15 7 25.5t20 10.5h11q-3 26 -3 53q0 21 1 31h-9q-27 0 -27 38q0 15 7 25.5t20 10.5h24q35 112 134.5 181.5t220.5 69.5q90 0 167 -62q8 -7 8 -18q0 -16 -13 -29.5t-27 -13.5q-10 0 -17 7q-48 42 -120 42q-99 0 -170.5 -49.5t-103.5 -127.5h352q13 0 20.5 -11
t7.5 -26q0 -37 -28 -37h-370q-2 -20 -2 -30q0 -32 5 -54h367q13 0 20.5 -11t7.5 -26q0 -37 -28 -37h-343q34 -73 102.5 -118t163.5 -45q88 0 143 63q11 11 19 11q15 0 29 -15t14 -29q0 -9 -7 -16q-77 -88 -193 -88q-132 0 -224 66t-129 171h-30q-27 0 -27 38z" />
    <glyph glyph-name="trademark" unicode="&#x2122;" horiz-adv-x="980" 
d="M57 662q0 11 4 24t11 13h328q7 0 12 -13.5t5 -23.5q0 -11 -5 -24t-12 -13h-125v-307q0 -7 -13.5 -11.5t-24.5 -4.5t-24 4.5t-13 11.5v307h-128q-6 0 -10.5 13t-4.5 24zM487 318v366q0 7 16 12t28 5q26 0 31 -7l135 -187l135 187q0 2 11.5 4.5t16.5 2.5q12 0 28 -5.5
t16 -11.5v-366q0 -7 -12.5 -11.5t-22.5 -4.5q-12 0 -24.5 4.5t-12.5 11.5v261l-103 -140q-14 -20 -33 -20t-33 20l-102 140v-261q0 -7 -14 -11.5t-23 -4.5q-12 0 -24.5 4.5t-12.5 11.5z" />
    <glyph glyph-name="uniE000" unicode="&#xe000;" horiz-adv-x="500" 
d="M0 500h500v-500h-500v500z" />
    </font>
</defs>
</svg>
